%FSLAX44Y44*%
%MOMM*%
G71*
G01*
G75*
%ADD10R,1.9000X1.3500*%
%ADD11C,0.2540*%
%ADD12C,1.7000*%
%ADD13C,0.9000*%
%ADD14R,1.5000X1.5000*%
%ADD15C,1.5000*%
%ADD16C,4.0000*%
%ADD17C,0.6000*%
%ADD18C,0.8000*%
%ADD19O,0.5000X1.2000*%
%ADD20R,0.5000X1.2000*%
%ADD21R,0.9500X1.7000*%
%ADD22R,1.3500X1.9000*%
D10*
X970280Y245370D02*
D03*
Y214370D02*
D03*
X974090Y103130D02*
D03*
Y72130D02*
D03*
X1062990Y242830D02*
D03*
Y211830D02*
D03*
Y103130D02*
D03*
Y72130D02*
D03*
X791210Y242830D02*
D03*
Y211830D02*
D03*
X792480Y103130D02*
D03*
Y72130D02*
D03*
X881380Y242830D02*
D03*
Y211830D02*
D03*
X883920Y103130D02*
D03*
Y72130D02*
D03*
X607060Y242830D02*
D03*
Y211830D02*
D03*
X604520Y103130D02*
D03*
Y72130D02*
D03*
X698500Y242830D02*
D03*
Y211830D02*
D03*
X699770Y103130D02*
D03*
Y72130D02*
D03*
X422910Y242830D02*
D03*
Y211830D02*
D03*
X420370Y103130D02*
D03*
Y72130D02*
D03*
X514350Y242830D02*
D03*
Y211830D02*
D03*
X516890Y103130D02*
D03*
Y72130D02*
D03*
X243840Y103130D02*
D03*
Y72130D02*
D03*
X332740Y242830D02*
D03*
Y211830D02*
D03*
Y103130D02*
D03*
Y72130D02*
D03*
X58420Y242830D02*
D03*
Y211830D02*
D03*
Y103130D02*
D03*
Y72130D02*
D03*
X149860Y242830D02*
D03*
Y211830D02*
D03*
Y103130D02*
D03*
Y72130D02*
D03*
X193040Y242830D02*
D03*
Y211830D02*
D03*
D12*
X419100Y41620D02*
D03*
X381000D02*
D03*
X76200D02*
D03*
X114300D02*
D03*
X152400D02*
D03*
X190500D02*
D03*
X228600D02*
D03*
X266700D02*
D03*
X304800D02*
D03*
X342900D02*
D03*
D13*
X1037590Y130810D02*
D03*
Y116810D02*
D03*
Y144810D02*
D03*
Y284510D02*
D03*
Y256510D02*
D03*
Y270510D02*
D03*
X946150Y130810D02*
D03*
Y116810D02*
D03*
Y144810D02*
D03*
Y284510D02*
D03*
Y256510D02*
D03*
Y270510D02*
D03*
X854710Y130810D02*
D03*
Y116810D02*
D03*
Y144810D02*
D03*
Y284510D02*
D03*
Y256510D02*
D03*
Y270510D02*
D03*
X763270Y130810D02*
D03*
Y116810D02*
D03*
Y144810D02*
D03*
Y284510D02*
D03*
Y256510D02*
D03*
Y270510D02*
D03*
X671830Y130810D02*
D03*
Y116810D02*
D03*
Y144810D02*
D03*
Y284510D02*
D03*
Y256510D02*
D03*
Y270510D02*
D03*
X580390Y130810D02*
D03*
Y116810D02*
D03*
Y144810D02*
D03*
Y284510D02*
D03*
Y256510D02*
D03*
Y270510D02*
D03*
X488950Y130810D02*
D03*
Y116810D02*
D03*
Y144810D02*
D03*
Y284510D02*
D03*
Y256510D02*
D03*
Y270510D02*
D03*
X397510Y130810D02*
D03*
Y116810D02*
D03*
Y144810D02*
D03*
Y284510D02*
D03*
Y256510D02*
D03*
Y270510D02*
D03*
X306070Y130810D02*
D03*
Y116810D02*
D03*
Y144810D02*
D03*
Y284510D02*
D03*
Y256510D02*
D03*
Y270510D02*
D03*
X214630Y130810D02*
D03*
Y116810D02*
D03*
Y144810D02*
D03*
Y284510D02*
D03*
Y256510D02*
D03*
Y270510D02*
D03*
X123190Y130810D02*
D03*
Y116810D02*
D03*
Y144810D02*
D03*
Y284510D02*
D03*
Y256510D02*
D03*
Y270510D02*
D03*
X31750Y130810D02*
D03*
Y116810D02*
D03*
Y144810D02*
D03*
Y284510D02*
D03*
Y256510D02*
D03*
Y270510D02*
D03*
D14*
X709930Y-7620D02*
D03*
X552450Y-8890D02*
D03*
D15*
X709930Y17780D02*
D03*
X735330Y-7620D02*
D03*
Y17780D02*
D03*
X760730Y-7620D02*
D03*
Y17780D02*
D03*
X786130Y-7620D02*
D03*
Y17780D02*
D03*
X811530Y-7620D02*
D03*
Y17780D02*
D03*
X836930Y-7620D02*
D03*
Y17780D02*
D03*
X862330Y-7620D02*
D03*
Y17780D02*
D03*
X887730Y-7620D02*
D03*
Y17780D02*
D03*
X913130Y-7620D02*
D03*
Y17780D02*
D03*
X938530Y-7620D02*
D03*
Y17780D02*
D03*
X963930Y-7620D02*
D03*
Y17780D02*
D03*
X989330Y-7620D02*
D03*
Y17780D02*
D03*
X1014730Y-7620D02*
D03*
Y17780D02*
D03*
X628650Y16510D02*
D03*
Y-8890D02*
D03*
X603250Y16510D02*
D03*
Y-8890D02*
D03*
X577850Y16510D02*
D03*
Y-8890D02*
D03*
X552450Y16510D02*
D03*
D16*
X1096010Y0D02*
D03*
Y327660D02*
D03*
X0D02*
D03*
Y0D02*
D03*
M02*
