M48
;Layer_Color=9474304
;FILE_FORMAT=4:4
METRIC,LZ
;TYPE=PLATED
T1F00S00C0.3000
T2F00S00C0.5000
T3F00S00C0.7000
T4F00S00C0.9000
T5F00S00C1.4000
T6F00S00C3.5000
%
T01
X000762Y-0000508
X0005842Y0003048
X0015113Y0005969
X002286Y0000254
X0024384Y-0002286
X0028956Y-0002159
X003429Y0000889
X0028067Y0005461
X0045339Y0002794
X004445Y-0001651
X0051308Y-0000127
X0055245Y0004572
X0063754Y0006096
X0065786Y0009398
X006477Y0010795
X00725805Y00083185
X0083947Y0009017
Y0012573
X0099949Y001016
X0062357Y0010922
X0062484Y0006731
X0053467Y0006985
X0054356Y0009144
X0056642Y0010922
X00572889Y00159908
X0047244Y0012446
X0047117Y0009144
X0036322Y0007493
X0035179Y0008255
X0027305Y0010922
X0022352
X0020066Y0011557
X0019304Y0010414
X0018542Y0011049
T02
X0065405Y0027813
X007493Y0028956
X0092075Y0024765
X0095504Y0018669
X0096774
X0061722Y0018415
X0060579
X0058928
X0055245Y0018542
X0025019Y0018669
X0023749Y0019685
X0022479Y0018542
X0019885Y0009144
T03
X0103759Y0011681
Y0013081
Y0014481
Y0025651
Y0027051
Y0028451
X0094615
Y0027051
Y0025651
X0085471
Y0027051
Y0028451
X0076327
Y0027051
Y0025651
X0067183
Y0027051
Y0028451
Y0014481
Y0013081
Y0011681
X0076327
Y0013081
Y0014481
X0085471
Y0013081
Y0011681
X0094615
Y0013081
Y0014481
X0058039
Y0013081
Y0011681
X0048895
Y0013081
Y0014481
X0039751
Y0013081
Y0011681
X0030607
Y0013081
Y0014481
Y0025651
Y0027051
Y0028451
X0039751
Y0027051
Y0025651
X0048895
Y0027051
Y0028451
X0058039
Y0027051
Y0025651
X0021463
Y0027051
Y0028451
X0012319
Y0027051
Y0025651
X0003175
Y0027051
Y0028451
Y0014481
Y0013081
Y0011681
X0012319
Y0013081
Y0014481
X0021463
Y0013081
Y0011681
T04
X0055245Y-0000889
X0057785
X0060325
X0062865
Y0001651
X0060325
X0057785
X0055245
X0070993Y0001778
Y-0000762
X0073533
Y0001778
X0076073
Y-0000762
X0078613
Y0001778
X0081153
Y-0000762
X0083693
Y0001778
X0086233
Y-0000762
X0088773
Y0001778
X0091313
Y-0000762
X0093853
Y0001778
X0096393
Y-0000762
X0098933
Y0001778
X0101473
Y-0000762
T05
X000762Y0004162
X001143
X001524
X001905
X002286
X002667
X003048
X003429
X00381
X004191
T06
X0Y0
X0109601
Y0032766
X0
M30
