%FSLAX44Y44*%
%MOMM*%
G71*
G01*
G75*
G04 Layer_Color=255*
%ADD10R,1.9000X1.3500*%
%ADD11C,0.2540*%
%ADD12C,1.7000*%
%ADD13C,0.9000*%
%ADD14R,1.5000X1.5000*%
%ADD15C,1.5000*%
%ADD16C,4.0000*%
%ADD17C,0.6000*%
%ADD18C,0.8000*%
%ADD19O,0.5000X1.2000*%
%ADD20R,0.5000X1.2000*%
%ADD21R,0.9500X1.7000*%
%ADD22R,1.3500X1.9000*%
D10*
X1062990Y268230D02*
D03*
Y237230D02*
D03*
Y130550D02*
D03*
Y161550D02*
D03*
D12*
X419100Y41620D02*
D03*
X381000D02*
D03*
X76200D02*
D03*
X114300D02*
D03*
X152400D02*
D03*
X190500D02*
D03*
X228600D02*
D03*
X266700D02*
D03*
X304800D02*
D03*
X342900D02*
D03*
D13*
X1037590Y130810D02*
D03*
Y116810D02*
D03*
Y144810D02*
D03*
Y284510D02*
D03*
Y256510D02*
D03*
Y270510D02*
D03*
X946150Y130810D02*
D03*
Y116810D02*
D03*
Y144810D02*
D03*
Y284510D02*
D03*
Y256510D02*
D03*
Y270510D02*
D03*
X854710Y130810D02*
D03*
Y116810D02*
D03*
Y144810D02*
D03*
Y284510D02*
D03*
Y256510D02*
D03*
Y270510D02*
D03*
X763270Y130810D02*
D03*
Y116810D02*
D03*
Y144810D02*
D03*
Y284510D02*
D03*
Y256510D02*
D03*
Y270510D02*
D03*
X671830Y130810D02*
D03*
Y116810D02*
D03*
Y144810D02*
D03*
Y284510D02*
D03*
Y256510D02*
D03*
Y270510D02*
D03*
X580390Y130810D02*
D03*
Y116810D02*
D03*
Y144810D02*
D03*
Y284510D02*
D03*
Y256510D02*
D03*
Y270510D02*
D03*
X488950Y130810D02*
D03*
Y116810D02*
D03*
Y144810D02*
D03*
Y284510D02*
D03*
Y256510D02*
D03*
Y270510D02*
D03*
X397510Y130810D02*
D03*
Y116810D02*
D03*
Y144810D02*
D03*
Y284510D02*
D03*
Y256510D02*
D03*
Y270510D02*
D03*
X306070Y130810D02*
D03*
Y116810D02*
D03*
Y144810D02*
D03*
Y284510D02*
D03*
Y256510D02*
D03*
Y270510D02*
D03*
X214630Y130810D02*
D03*
Y116810D02*
D03*
Y144810D02*
D03*
Y284510D02*
D03*
Y256510D02*
D03*
Y270510D02*
D03*
X123190Y130810D02*
D03*
Y116810D02*
D03*
Y144810D02*
D03*
Y284510D02*
D03*
Y256510D02*
D03*
Y270510D02*
D03*
X31750Y130810D02*
D03*
Y116810D02*
D03*
Y144810D02*
D03*
Y284510D02*
D03*
Y256510D02*
D03*
Y270510D02*
D03*
D14*
X709930Y-7620D02*
D03*
X552450Y-8890D02*
D03*
D15*
X709930Y17780D02*
D03*
X735330Y-7620D02*
D03*
Y17780D02*
D03*
X760730Y-7620D02*
D03*
Y17780D02*
D03*
X786130Y-7620D02*
D03*
Y17780D02*
D03*
X811530Y-7620D02*
D03*
Y17780D02*
D03*
X836930Y-7620D02*
D03*
Y17780D02*
D03*
X862330Y-7620D02*
D03*
Y17780D02*
D03*
X887730Y-7620D02*
D03*
Y17780D02*
D03*
X913130Y-7620D02*
D03*
Y17780D02*
D03*
X938530Y-7620D02*
D03*
Y17780D02*
D03*
X963930Y-7620D02*
D03*
Y17780D02*
D03*
X989330Y-7620D02*
D03*
Y17780D02*
D03*
X1014730Y-7620D02*
D03*
Y17780D02*
D03*
X628650Y16510D02*
D03*
Y-8890D02*
D03*
X603250Y16510D02*
D03*
Y-8890D02*
D03*
X577850Y16510D02*
D03*
Y-8890D02*
D03*
X552450Y16510D02*
D03*
D16*
X1096010Y0D02*
D03*
Y327660D02*
D03*
X0D02*
D03*
Y0D02*
D03*
D19*
X980440Y171020D02*
D03*
X967740D02*
D03*
X955040D02*
D03*
X942340D02*
D03*
X929640D02*
D03*
X916940D02*
D03*
X904240D02*
D03*
X891540D02*
D03*
X980440Y226020D02*
D03*
X967740D02*
D03*
X955040D02*
D03*
X942340D02*
D03*
X929640D02*
D03*
X916940D02*
D03*
X904240D02*
D03*
X539750D02*
D03*
X552450D02*
D03*
X565150D02*
D03*
X577850D02*
D03*
X590550D02*
D03*
X603250D02*
D03*
X615950D02*
D03*
X527050Y171020D02*
D03*
X539750D02*
D03*
X552450D02*
D03*
X565150D02*
D03*
X577850D02*
D03*
X590550D02*
D03*
X603250D02*
D03*
X615950D02*
D03*
X250190D02*
D03*
X237490D02*
D03*
X224790D02*
D03*
X212090D02*
D03*
X199390D02*
D03*
X186690D02*
D03*
X173990D02*
D03*
X161290D02*
D03*
X250190Y226020D02*
D03*
X237490D02*
D03*
X224790D02*
D03*
X212090D02*
D03*
X199390D02*
D03*
X186690D02*
D03*
X173990D02*
D03*
D20*
X891540D02*
D03*
X527050D02*
D03*
X161290D02*
D03*
D21*
X871250Y185420D02*
D03*
X843250D02*
D03*
X113000Y185420D02*
D03*
X141000D02*
D03*
X505490Y185420D02*
D03*
X477490D02*
D03*
X871250Y208280D02*
D03*
X843250D02*
D03*
X505490D02*
D03*
X477490D02*
D03*
X141000D02*
D03*
X113000D02*
D03*
D22*
X879850Y270510D02*
D03*
X910850D02*
D03*
X788410D02*
D03*
X819410D02*
D03*
X971290D02*
D03*
X1002290D02*
D03*
X790950Y130810D02*
D03*
X821950D02*
D03*
X882390D02*
D03*
X913390D02*
D03*
X971290D02*
D03*
X1002290D02*
D03*
X696970D02*
D03*
X727970D02*
D03*
X695700Y270510D02*
D03*
X726700D02*
D03*
X601720Y130810D02*
D03*
X632720D02*
D03*
X604260Y270510D02*
D03*
X635260D02*
D03*
X514090Y130810D02*
D03*
X545090D02*
D03*
X512820Y270510D02*
D03*
X543820D02*
D03*
X417570Y130810D02*
D03*
X448570D02*
D03*
X420110Y270510D02*
D03*
X451110D02*
D03*
X239770D02*
D03*
X270770D02*
D03*
X241040Y130810D02*
D03*
X272040D02*
D03*
X331210D02*
D03*
X362210D02*
D03*
X329940Y270510D02*
D03*
X360940D02*
D03*
X55620Y130810D02*
D03*
X86620D02*
D03*
X55620Y270510D02*
D03*
X86620D02*
D03*
X147060D02*
D03*
X178060D02*
D03*
X147060Y130810D02*
D03*
X178060D02*
D03*
M02*
