%FSLAX44Y44*%
%MOMM*%
G71*
G01*
G75*
G04 Layer_Physical_Order=2*
G04 Layer_Color=16711680*
%ADD10R,1.9000X1.3500*%
%ADD11C,0.2540*%
%ADD12C,1.7000*%
%ADD13C,0.9000*%
%ADD14R,1.5000X1.5000*%
%ADD15C,1.5000*%
%ADD16C,4.0000*%
%ADD17C,0.6000*%
%ADD18C,0.8000*%
%ADD19O,0.5000X1.2000*%
%ADD20R,0.5000X1.2000*%
%ADD21R,0.9500X1.7000*%
%ADD22R,1.3500X1.9000*%
G36*
X600567Y25140D02*
X598711Y24372D01*
X596831Y22929D01*
X595388Y21049D01*
X594482Y18859D01*
X594172Y16510D01*
X594482Y14160D01*
X595388Y11971D01*
X596831Y10091D01*
X598114Y9107D01*
X597706Y7904D01*
X583394D01*
X582986Y9107D01*
X584269Y10091D01*
X585712Y11971D01*
X586618Y14160D01*
X586928Y16510D01*
X586618Y18859D01*
X585712Y21049D01*
X584269Y22929D01*
X582389Y24372D01*
X580533Y25140D01*
X580781Y26386D01*
X600319D01*
X600567Y25140D01*
D02*
G37*
G36*
X625967D02*
X624111Y24372D01*
X622231Y22929D01*
X620788Y21049D01*
X619882Y18859D01*
X619572Y16510D01*
X619882Y14160D01*
X620592Y12446D01*
X616050Y7904D01*
X608794D01*
X608386Y9107D01*
X609669Y10091D01*
X611111Y11971D01*
X612018Y14160D01*
X612328Y16510D01*
X612018Y18859D01*
X611111Y21049D01*
X609669Y22929D01*
X607789Y24372D01*
X605933Y25140D01*
X606181Y26386D01*
X625719D01*
X625967Y25140D01*
D02*
G37*
G36*
X585098Y48448D02*
X584612Y47274D01*
X556729D01*
X556689Y47476D01*
X555694Y48964D01*
X554206Y49959D01*
X552450Y50308D01*
X550694Y49959D01*
X549206Y48964D01*
X548211Y47476D01*
X547862Y45720D01*
X548211Y43964D01*
X548258Y43894D01*
X547659Y42774D01*
X481920D01*
X468087Y56607D01*
X467618Y56920D01*
X467987Y58136D01*
X575410D01*
X585098Y48448D01*
D02*
G37*
G36*
X575167Y25140D02*
X573311Y24372D01*
X571431Y22929D01*
X569989Y21049D01*
X569082Y18859D01*
X568772Y16510D01*
X569082Y14160D01*
X569989Y11971D01*
X571431Y10091D01*
X572714Y9107D01*
X572306Y7904D01*
X557994D01*
X557586Y9107D01*
X558869Y10091D01*
X560312Y11971D01*
X561218Y14160D01*
X561528Y16510D01*
X561218Y18859D01*
X560312Y21049D01*
X558869Y22929D01*
X556989Y24372D01*
X555133Y25140D01*
X555381Y26386D01*
X574919D01*
X575167Y25140D01*
D02*
G37*
G36*
X184756Y114946D02*
X183664Y114729D01*
X182176Y113734D01*
X181181Y112246D01*
X180832Y110490D01*
X181181Y108734D01*
X182176Y107246D01*
X183664Y106251D01*
X185420Y105902D01*
X187176Y106251D01*
X187723Y106616D01*
X188801Y105896D01*
X188452Y104140D01*
X188801Y102384D01*
X189796Y100896D01*
X191284Y99901D01*
X193040Y99552D01*
X194796Y99901D01*
X195012Y100046D01*
X557530D01*
X557530Y100046D01*
X558611Y100261D01*
X559527Y100873D01*
X564047Y105393D01*
X564664Y104981D01*
X566420Y104632D01*
X566916Y104730D01*
X571463Y100183D01*
X571463Y100183D01*
X572012Y99816D01*
X572379Y99571D01*
X573460Y99356D01*
X655618D01*
X655987Y98140D01*
X654616Y97224D01*
X653621Y95736D01*
X653272Y93980D01*
X653621Y92224D01*
X654055Y91574D01*
X653457Y90454D01*
X638710D01*
X635727Y93437D01*
X634811Y94049D01*
X633730Y94264D01*
X633730Y94264D01*
X547085D01*
X546804Y94684D01*
X545316Y95679D01*
X543560Y96028D01*
X541804Y95679D01*
X540316Y94684D01*
X540035Y94264D01*
X474695D01*
X474414Y94684D01*
X472926Y95679D01*
X471170Y96028D01*
X469414Y95679D01*
X467926Y94684D01*
X467645Y94264D01*
X203578D01*
X202815Y95405D01*
X200996Y96621D01*
X198850Y97048D01*
X196704Y96621D01*
X194885Y95405D01*
X194122Y94264D01*
X191670D01*
X171364Y114570D01*
Y119810D01*
X184756D01*
Y114946D01*
D02*
G37*
G36*
X859506Y50900D02*
Y26352D01*
X857791Y25642D01*
X855911Y24199D01*
X854927Y22916D01*
X853724Y23324D01*
Y48260D01*
X853509Y49341D01*
X852897Y50257D01*
X852897Y50257D01*
X846547Y56607D01*
X845631Y57219D01*
X844550Y57434D01*
X844550Y57434D01*
X643247D01*
X642878Y58650D01*
X643347Y58963D01*
X643790Y59406D01*
X851000D01*
X859506Y50900D01*
D02*
G37*
G36*
X259696Y134041D02*
Y120163D01*
X259696Y120163D01*
X259911Y119082D01*
X260523Y118166D01*
X268629Y110060D01*
X268462Y109220D01*
X268811Y107464D01*
X269245Y106814D01*
X268647Y105694D01*
X243197D01*
X242828Y106910D01*
X243297Y107223D01*
X252187Y116113D01*
X252187Y116113D01*
X252799Y117029D01*
X252881Y117439D01*
X253169Y117871D01*
X253384Y118951D01*
X253384Y118951D01*
Y138693D01*
X254558Y139179D01*
X259696Y134041D01*
D02*
G37*
G36*
X999206Y14849D02*
Y-4689D01*
X997960Y-4937D01*
X997191Y-3081D01*
X995749Y-1201D01*
X993869Y242D01*
X991680Y1148D01*
X989330Y1458D01*
X986981Y1148D01*
X985266Y438D01*
X980724Y4980D01*
Y12236D01*
X981927Y12644D01*
X982911Y11361D01*
X984791Y9919D01*
X986981Y9012D01*
X989330Y8702D01*
X991680Y9012D01*
X993869Y9919D01*
X995749Y11361D01*
X997191Y13241D01*
X997960Y15097D01*
X999206Y14849D01*
D02*
G37*
G36*
X975076Y69950D02*
Y3810D01*
X975076Y3810D01*
X975291Y2729D01*
X975903Y1813D01*
X981272Y-3556D01*
X980562Y-5271D01*
X980252Y-7620D01*
X980562Y-9969D01*
X981469Y-12159D01*
X982911Y-14039D01*
X984791Y-15481D01*
X986981Y-16388D01*
X989330Y-16698D01*
X991680Y-16388D01*
X993869Y-15481D01*
X995749Y-14039D01*
X997191Y-12159D01*
X997960Y-10303D01*
X999206Y-10551D01*
Y-14070D01*
X988160Y-25116D01*
X900330D01*
X891965Y-16751D01*
X892212Y-15505D01*
X892269Y-15481D01*
X894149Y-14039D01*
X895592Y-12159D01*
X896498Y-9969D01*
X896808Y-7620D01*
X896498Y-5271D01*
X895592Y-3081D01*
X894149Y-1201D01*
X892269Y242D01*
X890079Y1148D01*
X887730Y1458D01*
X885380Y1148D01*
X883191Y242D01*
X881311Y-1201D01*
X880327Y-2484D01*
X879124Y-2076D01*
Y5180D01*
X883666Y9722D01*
X885380Y9012D01*
X887730Y8702D01*
X890079Y9012D01*
X892269Y9919D01*
X894149Y11361D01*
X895592Y13241D01*
X896498Y15431D01*
X896808Y17780D01*
X896498Y20129D01*
X895592Y22319D01*
X894149Y24199D01*
X892269Y25642D01*
X890079Y26548D01*
X887730Y26858D01*
X885380Y26548D01*
X883191Y25642D01*
X881311Y24199D01*
X879868Y22319D01*
X878962Y20129D01*
X878652Y17780D01*
X878962Y15431D01*
X879672Y13716D01*
X874303Y8347D01*
X873691Y7431D01*
X873476Y6350D01*
X873476Y6350D01*
Y-24230D01*
X872590Y-25116D01*
X863188D01*
X862702Y-23942D01*
X864327Y-22317D01*
X864327Y-22317D01*
X864694Y-21768D01*
X864939Y-21401D01*
X865154Y-20320D01*
Y-16192D01*
X866869Y-15481D01*
X868749Y-14039D01*
X870191Y-12159D01*
X871098Y-9969D01*
X871408Y-7620D01*
X871098Y-5271D01*
X870191Y-3081D01*
X868749Y-1201D01*
X866869Y242D01*
X864679Y1148D01*
X862330Y1458D01*
X859980Y1148D01*
X857791Y242D01*
X855911Y-1201D01*
X854469Y-3081D01*
X853562Y-5271D01*
X853252Y-7620D01*
X853562Y-9969D01*
X854469Y-12159D01*
X855911Y-14039D01*
X857791Y-15481D01*
X859506Y-16192D01*
Y-19150D01*
X857580Y-21076D01*
X752928D01*
X752442Y-19902D01*
X756666Y-15678D01*
X758381Y-16388D01*
X760730Y-16698D01*
X763080Y-16388D01*
X765269Y-15481D01*
X767149Y-14039D01*
X768592Y-12159D01*
X769498Y-9969D01*
X769808Y-7620D01*
X769498Y-5271D01*
X768592Y-3081D01*
X767149Y-1201D01*
X765269Y242D01*
X763080Y1148D01*
X760730Y1458D01*
X758381Y1148D01*
X756191Y242D01*
X754311Y-1201D01*
X752868Y-3081D01*
X751962Y-5271D01*
X751652Y-7620D01*
X751962Y-9969D01*
X752672Y-11684D01*
X748020Y-16336D01*
X740731D01*
X740323Y-15133D01*
X741749Y-14039D01*
X743192Y-12159D01*
X744098Y-9969D01*
X744408Y-7620D01*
X744098Y-5271D01*
X743192Y-3081D01*
X741749Y-1201D01*
X739869Y242D01*
X737680Y1148D01*
X735330Y1458D01*
X732980Y1148D01*
X730791Y242D01*
X728911Y-1201D01*
X727468Y-3081D01*
X726562Y-5271D01*
X726252Y-7620D01*
X726562Y-9969D01*
X727468Y-12159D01*
X728911Y-14039D01*
X730337Y-15133D01*
X729929Y-16336D01*
X718930D01*
Y1380D01*
X700930D01*
Y-16336D01*
X637028D01*
X636466Y-15197D01*
X637420Y-13953D01*
X638432Y-11511D01*
X638609Y-10160D01*
X618691D01*
X618868Y-11511D01*
X619880Y-13953D01*
X620834Y-15197D01*
X620272Y-16336D01*
X610317D01*
X609755Y-15197D01*
X611111Y-13429D01*
X612018Y-11240D01*
X612328Y-8890D01*
X612018Y-6540D01*
X611111Y-4351D01*
X609669Y-2471D01*
X607789Y-1028D01*
X605600Y-122D01*
X603250Y188D01*
X600900Y-122D01*
X598711Y-1028D01*
X596831Y-2471D01*
X595388Y-4351D01*
X594482Y-6540D01*
X594172Y-8890D01*
X594482Y-11240D01*
X595388Y-13429D01*
X596745Y-15197D01*
X596183Y-16336D01*
X584917D01*
X584355Y-15197D01*
X585712Y-13429D01*
X586618Y-11240D01*
X586928Y-8890D01*
X586618Y-6540D01*
X585712Y-4351D01*
X584269Y-2471D01*
X582389Y-1028D01*
X580200Y-122D01*
X577850Y188D01*
X575500Y-122D01*
X573311Y-1028D01*
X571431Y-2471D01*
X569989Y-4351D01*
X569082Y-6540D01*
X568772Y-8890D01*
X569082Y-11240D01*
X569989Y-13429D01*
X571345Y-15197D01*
X570783Y-16336D01*
X561450D01*
Y110D01*
X543450D01*
Y-4796D01*
X517483D01*
X516885Y-3676D01*
X517319Y-3026D01*
X517668Y-1270D01*
X517319Y486D01*
X516885Y1136D01*
X517483Y2256D01*
X617220D01*
X617220Y2256D01*
X618301Y2471D01*
X619217Y3083D01*
X624586Y8452D01*
X626301Y7742D01*
X628650Y7432D01*
X630999Y7742D01*
X633189Y8648D01*
X635069Y10091D01*
X636511Y11971D01*
X637418Y14160D01*
X637728Y16510D01*
X637418Y18859D01*
X636511Y21049D01*
X635069Y22929D01*
X633189Y24372D01*
X631333Y25140D01*
X631581Y26386D01*
X694560D01*
X701122Y19824D01*
X700852Y17780D01*
X701162Y15431D01*
X702068Y13241D01*
X703511Y11361D01*
X705391Y9919D01*
X707580Y9012D01*
X709930Y8702D01*
X712280Y9012D01*
X714469Y9919D01*
X716349Y11361D01*
X717792Y13241D01*
X718698Y15431D01*
X719008Y17780D01*
X718698Y20129D01*
X717792Y22319D01*
X716349Y24199D01*
X714469Y25642D01*
X712280Y26548D01*
X709930Y26858D01*
X707580Y26548D01*
X705391Y25642D01*
X704204Y24730D01*
X698642Y30292D01*
X699128Y31466D01*
X731620D01*
X732506Y30580D01*
Y26352D01*
X730791Y25642D01*
X728911Y24199D01*
X727468Y22319D01*
X726562Y20129D01*
X726252Y17780D01*
X726562Y15431D01*
X727468Y13241D01*
X728911Y11361D01*
X730791Y9919D01*
X732980Y9012D01*
X735330Y8702D01*
X737680Y9012D01*
X739869Y9919D01*
X741749Y11361D01*
X743192Y13241D01*
X744098Y15431D01*
X744408Y17780D01*
X744098Y20129D01*
X743192Y22319D01*
X741749Y24199D01*
X739869Y25642D01*
X738154Y26352D01*
Y31750D01*
X737939Y32831D01*
X737694Y33198D01*
X737327Y33747D01*
X737327Y33747D01*
X735122Y35952D01*
X735608Y37126D01*
X765100D01*
X770606Y31620D01*
Y20711D01*
X769360Y20463D01*
X768592Y22319D01*
X767149Y24199D01*
X765269Y25642D01*
X763080Y26548D01*
X760730Y26858D01*
X758381Y26548D01*
X756191Y25642D01*
X754311Y24199D01*
X752868Y22319D01*
X751962Y20129D01*
X751652Y17780D01*
X751962Y15431D01*
X752868Y13241D01*
X754311Y11361D01*
X756191Y9919D01*
X758381Y9012D01*
X760730Y8702D01*
X763080Y9012D01*
X765269Y9919D01*
X767149Y11361D01*
X768592Y13241D01*
X769360Y15097D01*
X770606Y14849D01*
Y5080D01*
X770606Y5080D01*
X770821Y3999D01*
X771433Y3083D01*
X778072Y-3556D01*
X777362Y-5271D01*
X777052Y-7620D01*
X777362Y-9969D01*
X778269Y-12159D01*
X779711Y-14039D01*
X781591Y-15481D01*
X783781Y-16388D01*
X786130Y-16698D01*
X788480Y-16388D01*
X790669Y-15481D01*
X792549Y-14039D01*
X793991Y-12159D01*
X794898Y-9969D01*
X795208Y-7620D01*
X794898Y-5271D01*
X793991Y-3081D01*
X792549Y-1201D01*
X790669Y242D01*
X788480Y1148D01*
X786130Y1458D01*
X783781Y1148D01*
X782066Y438D01*
X776254Y6250D01*
Y14849D01*
X777500Y15097D01*
X778269Y13241D01*
X779711Y11361D01*
X781591Y9919D01*
X783781Y9012D01*
X786130Y8702D01*
X788480Y9012D01*
X790669Y9919D01*
X792549Y11361D01*
X793991Y13241D01*
X794898Y15431D01*
X795208Y17780D01*
X794898Y20129D01*
X793991Y22319D01*
X792549Y24199D01*
X790669Y25642D01*
X788954Y26352D01*
Y39370D01*
X788954Y39370D01*
X788739Y40451D01*
X788127Y41367D01*
X788127Y41367D01*
X783962Y45532D01*
X784448Y46706D01*
X802740D01*
X808706Y40740D01*
Y26352D01*
X806991Y25642D01*
X805111Y24199D01*
X803669Y22319D01*
X802762Y20129D01*
X802452Y17780D01*
X802762Y15431D01*
X803669Y13241D01*
X805111Y11361D01*
X806991Y9919D01*
X809181Y9012D01*
X811530Y8702D01*
X813879Y9012D01*
X816069Y9919D01*
X817949Y11361D01*
X819391Y13241D01*
X820298Y15431D01*
X820608Y17780D01*
X820298Y20129D01*
X819391Y22319D01*
X817949Y24199D01*
X816069Y25642D01*
X814354Y26352D01*
Y41910D01*
X814139Y42991D01*
X813527Y43907D01*
X806822Y50612D01*
X807308Y51786D01*
X843380D01*
X848076Y47090D01*
Y7520D01*
X840994Y438D01*
X839279Y1148D01*
X836930Y1458D01*
X834581Y1148D01*
X832391Y242D01*
X830511Y-1201D01*
X829069Y-3081D01*
X828162Y-5271D01*
X827852Y-7620D01*
X828162Y-9969D01*
X829069Y-12159D01*
X830511Y-14039D01*
X832391Y-15481D01*
X834581Y-16388D01*
X836930Y-16698D01*
X839279Y-16388D01*
X841469Y-15481D01*
X843349Y-14039D01*
X844791Y-12159D01*
X845698Y-9969D01*
X846008Y-7620D01*
X845698Y-5271D01*
X844988Y-3556D01*
X852897Y4353D01*
X852897Y4353D01*
X853509Y5269D01*
X853724Y6350D01*
Y12236D01*
X854927Y12644D01*
X855911Y11361D01*
X857791Y9919D01*
X859980Y9012D01*
X862330Y8702D01*
X864679Y9012D01*
X866869Y9919D01*
X868749Y11361D01*
X870191Y13241D01*
X871098Y15431D01*
X871408Y17780D01*
X871098Y20129D01*
X870191Y22319D01*
X868749Y24199D01*
X866869Y25642D01*
X865154Y26352D01*
Y52070D01*
X864939Y53151D01*
X864327Y54067D01*
X864327Y54067D01*
X855082Y63312D01*
X855568Y64486D01*
X911960D01*
X920576Y55870D01*
Y24847D01*
X919437Y24285D01*
X917669Y25642D01*
X915480Y26548D01*
X913130Y26858D01*
X910780Y26548D01*
X908591Y25642D01*
X906711Y24199D01*
X905268Y22319D01*
X904362Y20129D01*
X904052Y17780D01*
X904362Y15431D01*
X905268Y13241D01*
X906711Y11361D01*
X908591Y9919D01*
X910780Y9012D01*
X912990Y8721D01*
X913398Y7518D01*
X911133Y5253D01*
X910521Y4337D01*
X910306Y3256D01*
X910306Y3256D01*
Y952D01*
X908591Y242D01*
X906711Y-1201D01*
X905268Y-3081D01*
X904362Y-5271D01*
X904052Y-7620D01*
X904362Y-9969D01*
X905268Y-12159D01*
X906711Y-14039D01*
X908591Y-15481D01*
X910780Y-16388D01*
X913130Y-16698D01*
X915480Y-16388D01*
X917669Y-15481D01*
X919549Y-14039D01*
X920992Y-12159D01*
X921898Y-9969D01*
X922208Y-7620D01*
X921898Y-5271D01*
X920992Y-3081D01*
X919549Y-1201D01*
X917669Y242D01*
X916208Y847D01*
X915960Y2092D01*
X925397Y11529D01*
X925397Y11529D01*
X926009Y12445D01*
X926224Y13526D01*
Y57040D01*
X926009Y58121D01*
X925397Y59037D01*
X925397Y59037D01*
X916042Y68392D01*
X916528Y69566D01*
X944980D01*
X948406Y66140D01*
Y20711D01*
X947160Y20463D01*
X946392Y22319D01*
X944949Y24199D01*
X943069Y25642D01*
X940880Y26548D01*
X938530Y26858D01*
X936180Y26548D01*
X933991Y25642D01*
X932111Y24199D01*
X930668Y22319D01*
X929762Y20129D01*
X929452Y17780D01*
X929762Y15431D01*
X930668Y13241D01*
X932111Y11361D01*
X933991Y9919D01*
X936180Y9012D01*
X938530Y8702D01*
X940880Y9012D01*
X943069Y9919D01*
X944949Y11361D01*
X946392Y13241D01*
X947160Y15097D01*
X948406Y14849D01*
Y6250D01*
X942594Y438D01*
X940880Y1148D01*
X938530Y1458D01*
X936180Y1148D01*
X933991Y242D01*
X932111Y-1201D01*
X930668Y-3081D01*
X929762Y-5271D01*
X929452Y-7620D01*
X929762Y-9969D01*
X930668Y-12159D01*
X932111Y-14039D01*
X933991Y-15481D01*
X936180Y-16388D01*
X938530Y-16698D01*
X940880Y-16388D01*
X943069Y-15481D01*
X944949Y-14039D01*
X946392Y-12159D01*
X947298Y-9969D01*
X947608Y-7620D01*
X947298Y-5271D01*
X946588Y-3556D01*
X953227Y3083D01*
X953227Y3083D01*
X953839Y3999D01*
X954054Y5080D01*
X954054Y5080D01*
Y14849D01*
X955300Y15097D01*
X956068Y13241D01*
X957511Y11361D01*
X959391Y9919D01*
X961581Y9012D01*
X963930Y8702D01*
X966280Y9012D01*
X968469Y9919D01*
X970349Y11361D01*
X971792Y13241D01*
X972698Y15431D01*
X973008Y17780D01*
X972698Y20129D01*
X971792Y22319D01*
X970349Y24199D01*
X968469Y25642D01*
X966280Y26548D01*
X963930Y26858D01*
X961581Y26548D01*
X959866Y25838D01*
X958094Y27610D01*
Y68983D01*
X957879Y70064D01*
X957634Y70431D01*
X957267Y70981D01*
X957267Y70981D01*
X948781Y79467D01*
X947864Y80079D01*
X946783Y80294D01*
X946783Y80294D01*
X730633D01*
X730530Y80486D01*
X731183Y81576D01*
X963450D01*
X975076Y69950D01*
D02*
G37*
G36*
X234849Y201700D02*
X233525Y200815D01*
X232309Y198996D01*
X231882Y196850D01*
X232309Y194704D01*
X233525Y192885D01*
X234666Y192122D01*
Y177444D01*
X234606Y177404D01*
X233722Y176081D01*
X233412Y174520D01*
Y167520D01*
X233722Y165959D01*
X234606Y164636D01*
X234666Y164596D01*
Y154528D01*
X234666Y154527D01*
X234881Y153447D01*
X235493Y152530D01*
X245040Y142983D01*
X244554Y141810D01*
X232790D01*
Y133634D01*
X219959D01*
X218956Y135136D01*
X216971Y136462D01*
X216089Y136637D01*
X216130Y137907D01*
X216468Y137951D01*
X218180Y138661D01*
X219651Y139789D01*
X220779Y141260D01*
X221489Y142972D01*
X221563Y143540D01*
X207696D01*
X207771Y142972D01*
X208481Y141260D01*
X209609Y139789D01*
X211080Y138661D01*
X212792Y137951D01*
X213130Y137907D01*
X213171Y136637D01*
X212289Y136462D01*
X210304Y135136D01*
X208978Y133151D01*
X208512Y130810D01*
X208978Y128469D01*
X210304Y126484D01*
X212289Y125158D01*
X214630Y124692D01*
X216971Y125158D01*
X218956Y126484D01*
X219959Y127986D01*
X232790D01*
Y119810D01*
X245746D01*
X246218Y119716D01*
X246587Y118501D01*
X240130Y112044D01*
X227045D01*
X226764Y112464D01*
X225276Y113459D01*
X223520Y113808D01*
X221764Y113459D01*
X220573Y112663D01*
X219675Y113561D01*
X220282Y114469D01*
X220748Y116810D01*
X220282Y119151D01*
X218956Y121136D01*
X216971Y122462D01*
X214630Y122928D01*
X212289Y122462D01*
X210304Y121136D01*
X208978Y119151D01*
X208512Y116810D01*
X208978Y114469D01*
X210304Y112484D01*
X212289Y111158D01*
X214630Y110693D01*
X216971Y111158D01*
X218658Y112285D01*
X219556Y111387D01*
X219281Y110976D01*
X218932Y109220D01*
X219281Y107464D01*
X219715Y106814D01*
X219117Y105694D01*
X197319D01*
X197279Y105896D01*
X196284Y107384D01*
X195864Y107665D01*
Y112460D01*
X197080Y112829D01*
X197416Y112326D01*
X198904Y111331D01*
X200660Y110982D01*
X202416Y111331D01*
X203904Y112326D01*
X204899Y113814D01*
X205248Y115570D01*
X204899Y117326D01*
X203904Y118814D01*
X203484Y119095D01*
Y145720D01*
X222202Y164438D01*
X223229Y163752D01*
X224790Y163442D01*
X226351Y163752D01*
X227674Y164636D01*
X228558Y165959D01*
X228868Y167520D01*
Y174520D01*
X228558Y176081D01*
X227674Y177404D01*
X227614Y177444D01*
Y180692D01*
X228755Y181455D01*
X229971Y183274D01*
X230398Y185420D01*
X229971Y187566D01*
X228755Y189385D01*
X226936Y190601D01*
X224790Y191028D01*
X222644Y190601D01*
X220825Y189385D01*
X219609Y187566D01*
X219182Y185420D01*
X219609Y183274D01*
X220825Y181455D01*
X221966Y180692D01*
Y177444D01*
X221906Y177404D01*
X221022Y176081D01*
X220712Y174520D01*
Y170936D01*
X217342Y167566D01*
X216168Y168052D01*
Y174520D01*
X215858Y176081D01*
X214974Y177404D01*
X214914Y177444D01*
Y195680D01*
X222150Y202916D01*
X234481D01*
X234849Y201700D01*
D02*
G37*
G36*
X157290Y218520D02*
X164998D01*
X164998Y218520D01*
Y218520D01*
X165290Y218520D01*
X165290D01*
X165909D01*
X166111Y217506D01*
X166723Y216590D01*
X171166Y212147D01*
Y177444D01*
X171106Y177404D01*
X170222Y176081D01*
X169912Y174520D01*
Y167520D01*
X170222Y165959D01*
X171106Y164636D01*
X172429Y163752D01*
X173990Y163442D01*
X175551Y163752D01*
X176874Y164636D01*
X177380Y165394D01*
X178596Y165026D01*
Y141810D01*
X169810D01*
Y139374D01*
X168637Y138888D01*
X162017Y145507D01*
X161101Y146119D01*
X160020Y146334D01*
X160020Y146334D01*
X153600D01*
X143824Y156110D01*
Y175420D01*
X147250D01*
Y181907D01*
X148423Y182393D01*
X157212Y173604D01*
Y167520D01*
X157522Y165959D01*
X158406Y164636D01*
X159729Y163752D01*
X161290Y163442D01*
X162851Y163752D01*
X164174Y164636D01*
X165058Y165959D01*
X165368Y167520D01*
Y174520D01*
X165058Y176081D01*
X164174Y177404D01*
X162851Y178288D01*
X161290Y178598D01*
X160386Y178419D01*
X151387Y187417D01*
X150471Y188029D01*
X149390Y188244D01*
X149390Y188244D01*
X147250D01*
Y195420D01*
X143824D01*
Y198280D01*
X147250D01*
Y218280D01*
X134750D01*
Y218280D01*
X134532D01*
X133634Y219178D01*
Y219810D01*
X134520Y220696D01*
X157290D01*
Y218520D01*
D02*
G37*
G36*
X881311Y-14039D02*
X883191Y-15481D01*
X884906Y-16192D01*
Y-16510D01*
X884906Y-16510D01*
X885121Y-17591D01*
X885733Y-18507D01*
X897163Y-29937D01*
X898057Y-30535D01*
X897689Y-31750D01*
X875231D01*
X874863Y-30535D01*
X875757Y-29937D01*
X878297Y-27397D01*
X878297Y-27397D01*
X878664Y-26848D01*
X878909Y-26481D01*
X879124Y-25400D01*
Y-13164D01*
X880327Y-12756D01*
X881311Y-14039D01*
D02*
G37*
G36*
X269216Y180180D02*
Y141810D01*
X263790D01*
Y139594D01*
X262617Y139108D01*
X246244Y155481D01*
Y163927D01*
X246783Y164287D01*
X247364Y164597D01*
X248629Y163752D01*
X250190Y163442D01*
X251751Y163752D01*
X253074Y164636D01*
X253958Y165959D01*
X254268Y167520D01*
Y174520D01*
X253958Y176081D01*
X253074Y177404D01*
X253014Y177444D01*
Y181962D01*
X254155Y182725D01*
X255371Y184544D01*
X255798Y186690D01*
X255371Y188836D01*
X254155Y190655D01*
X252336Y191871D01*
X250190Y192298D01*
X248066Y191875D01*
X248011Y191921D01*
X247084Y193307D01*
Y200652D01*
X248258Y201138D01*
X269216Y180180D01*
D02*
G37*
G36*
X549566Y164636D02*
X550889Y163752D01*
X552450Y163442D01*
X554011Y163752D01*
X554856Y164317D01*
X555976Y163718D01*
Y125522D01*
X554513Y124060D01*
X553340Y124546D01*
Y141810D01*
X547914D01*
Y164921D01*
X549130Y165289D01*
X549566Y164636D01*
D02*
G37*
G36*
X635543Y85633D02*
X636459Y85021D01*
X637540Y84806D01*
X637540Y84806D01*
X701040D01*
X701040Y84806D01*
X702121Y85021D01*
X703037Y85633D01*
X704750Y87346D01*
X721813D01*
X721833Y87333D01*
X722425Y86226D01*
X721566Y84941D01*
X721217Y83185D01*
X721566Y81429D01*
X721613Y81359D01*
X721014Y80239D01*
X637495D01*
X633417Y84317D01*
X632501Y84929D01*
X631420Y85144D01*
X631420Y85144D01*
X473257D01*
X472452Y86126D01*
X472655Y87147D01*
X472926Y87201D01*
X474414Y88196D01*
X474695Y88616D01*
X540035D01*
X540316Y88196D01*
X541804Y87201D01*
X543560Y86852D01*
X545316Y87201D01*
X546804Y88196D01*
X547085Y88616D01*
X632560D01*
X635543Y85633D01*
D02*
G37*
G36*
X630818Y71308D02*
X630332Y70134D01*
X628365D01*
X628084Y70554D01*
X626596Y71549D01*
X624840Y71898D01*
X623084Y71549D01*
X621596Y70554D01*
X620601Y69066D01*
X620252Y67310D01*
X620601Y65554D01*
X621596Y64066D01*
X623084Y63071D01*
X624840Y62722D01*
X626596Y63071D01*
X628084Y64066D01*
X628365Y64486D01*
X633137D01*
X633735Y63366D01*
X633301Y62716D01*
X632952Y60960D01*
X633301Y59204D01*
X633735Y58554D01*
X633137Y57434D01*
X592990D01*
X578577Y71847D01*
X577661Y72459D01*
X576580Y72674D01*
X576580Y72674D01*
X538195D01*
X537914Y73094D01*
X536426Y74089D01*
X535908Y74192D01*
X536033Y75456D01*
X626670D01*
X630818Y71308D01*
D02*
G37*
G36*
X599553Y145323D02*
X599553Y145323D01*
X600469Y144711D01*
X601550Y144496D01*
X601550Y144496D01*
X608430D01*
X609943Y142983D01*
X609728Y142466D01*
X609728Y142466D01*
X609456Y141810D01*
X593470D01*
Y133634D01*
X585719D01*
X584716Y135136D01*
X582731Y136462D01*
X581849Y136637D01*
X581890Y137907D01*
X582228Y137951D01*
X583940Y138661D01*
X585411Y139789D01*
X586539Y141260D01*
X587249Y142972D01*
X587323Y143540D01*
X573456D01*
X573531Y142972D01*
X574241Y141260D01*
X575369Y139789D01*
X576840Y138661D01*
X578552Y137951D01*
X578890Y137907D01*
X578931Y136637D01*
X578049Y136462D01*
X576064Y135136D01*
X574738Y133151D01*
X574272Y130810D01*
X574738Y128469D01*
X576064Y126484D01*
X578049Y125158D01*
X580390Y124692D01*
X582731Y125158D01*
X584716Y126484D01*
X585719Y127986D01*
X593470D01*
Y119810D01*
X609970D01*
Y141297D01*
X610626Y141568D01*
X610626Y141568D01*
X611143Y141783D01*
X614396Y138530D01*
Y126143D01*
X614396Y126143D01*
X614611Y125062D01*
X615223Y124145D01*
X623393Y115975D01*
X623024Y114760D01*
X621408Y114439D01*
X619576Y113214D01*
X618351Y111382D01*
X618174Y110490D01*
X623570D01*
Y107950D01*
X618174D01*
X618351Y107058D01*
X618975Y106124D01*
X618377Y105004D01*
X574630D01*
X570910Y108724D01*
X571008Y109220D01*
X570659Y110976D01*
X569664Y112464D01*
X568176Y113459D01*
X567974Y113499D01*
Y155182D01*
X569094Y155781D01*
X570728Y154689D01*
X571619Y154512D01*
Y159908D01*
X572889D01*
Y161178D01*
X578285D01*
X578108Y162070D01*
X577903Y162376D01*
X578389Y163549D01*
X579411Y163752D01*
X580438Y164438D01*
X599553Y145323D01*
D02*
G37*
G36*
X1131570Y-31750D02*
X990801D01*
X990433Y-30535D01*
X991327Y-29937D01*
X1004027Y-17237D01*
X1004027Y-17237D01*
X1004639Y-16321D01*
X1004854Y-15240D01*
X1004854Y-15240D01*
Y-10551D01*
X1006100Y-10303D01*
X1006869Y-12159D01*
X1008311Y-14039D01*
X1010191Y-15481D01*
X1012381Y-16388D01*
X1014730Y-16698D01*
X1017079Y-16388D01*
X1019269Y-15481D01*
X1021149Y-14039D01*
X1022591Y-12159D01*
X1023498Y-9969D01*
X1023808Y-7620D01*
X1023498Y-5271D01*
X1022591Y-3081D01*
X1021149Y-1201D01*
X1019269Y242D01*
X1017079Y1148D01*
X1014730Y1458D01*
X1012381Y1148D01*
X1010191Y242D01*
X1008311Y-1201D01*
X1006869Y-3081D01*
X1006100Y-4937D01*
X1004854Y-4689D01*
Y14849D01*
X1006100Y15097D01*
X1006869Y13241D01*
X1008311Y11361D01*
X1010191Y9919D01*
X1012381Y9012D01*
X1014730Y8702D01*
X1017079Y9012D01*
X1019269Y9919D01*
X1021149Y11361D01*
X1022591Y13241D01*
X1023498Y15431D01*
X1023808Y17780D01*
X1023498Y20129D01*
X1022591Y22319D01*
X1021149Y24199D01*
X1019269Y25642D01*
X1017079Y26548D01*
X1014730Y26858D01*
X1012381Y26548D01*
X1010191Y25642D01*
X1008311Y24199D01*
X1006869Y22319D01*
X1006100Y20463D01*
X1004854Y20711D01*
Y99060D01*
X1004639Y100141D01*
X1004394Y100508D01*
X1004027Y101057D01*
X1004027Y101057D01*
X1003980Y101104D01*
X1004078Y101600D01*
X1003729Y103356D01*
X1002734Y104844D01*
X1001246Y105839D01*
X999490Y106188D01*
X997734Y105839D01*
X996246Y104844D01*
X995251Y103356D01*
X994902Y101600D01*
X995251Y99844D01*
X996246Y98356D01*
X997734Y97361D01*
X999206Y97068D01*
Y20711D01*
X997960Y20463D01*
X997191Y22319D01*
X995749Y24199D01*
X993869Y25642D01*
X991680Y26548D01*
X989330Y26858D01*
X986981Y26548D01*
X984791Y25642D01*
X982911Y24199D01*
X981927Y22916D01*
X980724Y23324D01*
Y71120D01*
X980509Y72201D01*
X980264Y72568D01*
X979897Y73117D01*
X979897Y73117D01*
X966617Y86397D01*
X965701Y87009D01*
X964620Y87224D01*
X964620Y87224D01*
X844261D01*
X843662Y88344D01*
X843709Y88414D01*
X844058Y90170D01*
X843709Y91926D01*
X843275Y92576D01*
X843873Y93696D01*
X915033D01*
X915033Y93696D01*
X916114Y93911D01*
X917030Y94523D01*
X935677Y113169D01*
X935677Y113169D01*
X936289Y114086D01*
X936504Y115167D01*
X936504Y115167D01*
Y141452D01*
X938112Y143059D01*
X939358Y142812D01*
X940001Y141260D01*
X941129Y139789D01*
X942600Y138661D01*
X944312Y137951D01*
X944650Y137907D01*
X944691Y136637D01*
X943809Y136462D01*
X941824Y135136D01*
X940498Y133151D01*
X940033Y130810D01*
X940498Y128469D01*
X941824Y126484D01*
X943809Y125158D01*
X946150Y124692D01*
X948491Y125158D01*
X950476Y126484D01*
X951479Y127986D01*
X963040D01*
Y119810D01*
X979540D01*
Y141810D01*
X963040D01*
Y133634D01*
X951479D01*
X950476Y135136D01*
X948491Y136462D01*
X947609Y136637D01*
X947650Y137907D01*
X947988Y137951D01*
X949700Y138661D01*
X951171Y139789D01*
X952299Y141260D01*
X953009Y142972D01*
X953083Y143540D01*
X946150D01*
Y146080D01*
X953083D01*
X953009Y146648D01*
X952366Y148200D01*
X953072Y149256D01*
X961500D01*
X961500Y149256D01*
X962581Y149471D01*
X963497Y150083D01*
X977852Y164438D01*
X978879Y163752D01*
X980440Y163442D01*
X982001Y163752D01*
X983324Y164636D01*
X984208Y165959D01*
X984518Y167520D01*
Y174520D01*
X984243Y175904D01*
X985363Y176503D01*
X999466Y162400D01*
Y141810D01*
X994040D01*
Y119810D01*
X1010540D01*
Y141810D01*
X1005114D01*
Y163570D01*
X1005114Y163570D01*
X1004899Y164651D01*
X1004287Y165567D01*
X1004287Y165567D01*
X946418Y223436D01*
Y229520D01*
X946108Y231081D01*
X945224Y232404D01*
X943901Y233288D01*
X942340Y233598D01*
X940779Y233288D01*
X939456Y232404D01*
X938572Y231081D01*
X938262Y229520D01*
Y222520D01*
X938572Y220959D01*
X939456Y219636D01*
X940779Y218752D01*
X942340Y218442D01*
X943244Y218622D01*
X968475Y193391D01*
X967877Y192271D01*
X967740Y192298D01*
X965594Y191871D01*
X963775Y190655D01*
X962559Y188836D01*
X962132Y186690D01*
X962559Y184544D01*
X963775Y182725D01*
X964916Y181962D01*
Y177444D01*
X964856Y177404D01*
X963972Y176081D01*
X963662Y174520D01*
Y167520D01*
X963972Y165959D01*
X964856Y164636D01*
X966179Y163752D01*
X967359Y163517D01*
X967728Y162302D01*
X960330Y154904D01*
X943139D01*
X943139Y154904D01*
X942058Y154689D01*
X941142Y154077D01*
X941142Y154077D01*
X933638Y146573D01*
X932464Y147059D01*
Y164596D01*
X932524Y164636D01*
X933408Y165959D01*
X933718Y167520D01*
Y173991D01*
X934892Y174477D01*
X937846Y171523D01*
X938262Y171245D01*
Y167520D01*
X938572Y165959D01*
X939456Y164636D01*
X940779Y163752D01*
X942340Y163442D01*
X943901Y163752D01*
X945224Y164636D01*
X946108Y165959D01*
X946418Y167520D01*
Y172640D01*
X946434Y172720D01*
X946418Y172800D01*
Y174520D01*
X946108Y176081D01*
X945224Y177404D01*
X943901Y178288D01*
X942340Y178598D01*
X940779Y178288D01*
X939754Y177603D01*
X933820Y183537D01*
X932904Y184149D01*
X931823Y184364D01*
X931823Y184364D01*
X927457D01*
X927457Y184364D01*
X926376Y184149D01*
X925460Y183537D01*
X925460Y183537D01*
X920938Y179015D01*
X920776Y179082D01*
X919764Y179757D01*
Y191237D01*
X924207Y195679D01*
X924819Y196596D01*
X925034Y197677D01*
X925034Y197677D01*
Y220026D01*
X926250Y220394D01*
X926756Y219636D01*
X928079Y218752D01*
X929640Y218442D01*
X931201Y218752D01*
X932524Y219636D01*
X933408Y220959D01*
X933718Y222520D01*
Y229520D01*
X933408Y231081D01*
X932524Y232404D01*
X932464Y232444D01*
Y236320D01*
X939700Y243556D01*
X968798D01*
X968798Y243556D01*
X969879Y243771D01*
X970795Y244383D01*
X992867Y266454D01*
X994040Y265968D01*
Y259510D01*
X1010540D01*
Y281510D01*
X994040D01*
Y273334D01*
X992928D01*
X992928Y273334D01*
X991847Y273119D01*
X990931Y272507D01*
X980713Y262289D01*
X979540Y262775D01*
Y281510D01*
X963040D01*
Y273334D01*
X951479D01*
X950476Y274836D01*
X948491Y276162D01*
X947609Y276337D01*
X947650Y277607D01*
X947988Y277651D01*
X949700Y278361D01*
X951171Y279489D01*
X952299Y280960D01*
X953009Y282672D01*
X953083Y283240D01*
X939217D01*
X939291Y282672D01*
X940001Y280960D01*
X941129Y279489D01*
X942600Y278361D01*
X944312Y277651D01*
X944650Y277607D01*
X944691Y276337D01*
X943809Y276162D01*
X941824Y274836D01*
X940498Y272851D01*
X940033Y270510D01*
X940498Y268169D01*
X941824Y266184D01*
X943809Y264858D01*
X946150Y264393D01*
X948491Y264858D01*
X950476Y266184D01*
X951479Y267686D01*
X963040D01*
Y259510D01*
X976275D01*
X976761Y258337D01*
X967628Y249204D01*
X946655D01*
X946531Y250468D01*
X948491Y250858D01*
X950476Y252184D01*
X951802Y254169D01*
X952268Y256510D01*
X951802Y258851D01*
X950476Y260836D01*
X948491Y262162D01*
X946150Y262628D01*
X943809Y262162D01*
X941824Y260836D01*
X940498Y258851D01*
X940033Y256510D01*
X940498Y254169D01*
X941824Y252184D01*
X943809Y250858D01*
X945769Y250468D01*
D01*
X945645Y249204D01*
X938530D01*
X938530Y249204D01*
X937449Y248989D01*
X936533Y248377D01*
X936533Y248377D01*
X927643Y239487D01*
X927031Y238571D01*
X926816Y237490D01*
X926816Y237490D01*
Y232540D01*
X925796Y231783D01*
X925034Y232014D01*
Y244162D01*
X925931Y245504D01*
X926358Y247650D01*
X925931Y249796D01*
X924715Y251615D01*
X922896Y252831D01*
X920750Y253258D01*
X918604Y252831D01*
X916785Y251615D01*
X915569Y249796D01*
X915142Y247650D01*
X915569Y245504D01*
X916785Y243685D01*
X918604Y242469D01*
X919386Y242314D01*
Y234113D01*
X918404Y233307D01*
X916940Y233598D01*
X915379Y233288D01*
X914056Y232404D01*
X913172Y231081D01*
X912862Y229520D01*
Y222520D01*
X913172Y220959D01*
X914056Y219636D01*
X914116Y219596D01*
Y199290D01*
X908633Y193807D01*
X908280Y193278D01*
X907064Y193647D01*
Y211846D01*
X907064Y211846D01*
X906849Y212927D01*
X906237Y213843D01*
X902540Y217541D01*
X903138Y218661D01*
X904240Y218442D01*
X905801Y218752D01*
X907124Y219636D01*
X908008Y220959D01*
X908318Y222520D01*
Y229520D01*
X908008Y231081D01*
X907124Y232404D01*
X907064Y232444D01*
Y259510D01*
X919100D01*
Y281510D01*
X902600D01*
Y266254D01*
X902243Y265897D01*
X901631Y264981D01*
X901416Y263900D01*
X901416Y263900D01*
Y239825D01*
X900756Y239384D01*
D01*
X899927Y239625D01*
Y239625D01*
X899927Y239625D01*
X893715Y245837D01*
X892799Y246449D01*
X891718Y246664D01*
X891718Y246664D01*
X847250D01*
X827660Y266254D01*
Y281510D01*
X811160D01*
Y259510D01*
X826416D01*
X844083Y241843D01*
X844083Y241843D01*
X844632Y241476D01*
X844999Y241231D01*
X846080Y241016D01*
X890548D01*
X895106Y236458D01*
Y233520D01*
X887540D01*
Y226344D01*
X834390D01*
X833309Y226129D01*
X832393Y225517D01*
X820963Y214087D01*
X820351Y213171D01*
X820136Y212090D01*
X820136Y212090D01*
Y141810D01*
X813700D01*
Y119810D01*
X830200D01*
Y141810D01*
X825784D01*
Y210920D01*
X835560Y220696D01*
X887540D01*
Y218520D01*
X893277D01*
X895106Y218156D01*
X895321Y217076D01*
X895933Y216159D01*
X901416Y210676D01*
Y177444D01*
X901356Y177404D01*
X900472Y176081D01*
X900162Y174520D01*
Y167520D01*
X900472Y165959D01*
X901356Y164636D01*
X902679Y163752D01*
X904240Y163442D01*
X905801Y163752D01*
X906744Y164383D01*
X907918Y163897D01*
X908021Y163379D01*
X908633Y162463D01*
X910566Y160530D01*
Y141810D01*
X905140D01*
Y119810D01*
X916904D01*
X917390Y118637D01*
X909528Y110774D01*
X858664D01*
X858296Y111990D01*
X859036Y112484D01*
X860362Y114469D01*
X860827Y116810D01*
X860362Y119151D01*
X859036Y121136D01*
X857051Y122462D01*
X854710Y122928D01*
X852369Y122462D01*
X850384Y121136D01*
X849058Y119151D01*
X848593Y116810D01*
X849058Y114469D01*
X850384Y112484D01*
X851124Y111990D01*
X850756Y110774D01*
X767224D01*
X766855Y111990D01*
X767596Y112484D01*
X768922Y114469D01*
X769388Y116810D01*
X768922Y119151D01*
X767596Y121136D01*
X765611Y122462D01*
X763270Y122928D01*
X760929Y122462D01*
X758944Y121136D01*
X757618Y119151D01*
X757152Y116810D01*
X757618Y114469D01*
X758944Y112484D01*
X759685Y111990D01*
X759316Y110774D01*
X675784D01*
X675415Y111990D01*
X676156Y112484D01*
X677482Y114469D01*
X677947Y116810D01*
X677482Y119151D01*
X676156Y121136D01*
X674171Y122462D01*
X671830Y122928D01*
X669489Y122462D01*
X667504Y121136D01*
X666178Y119151D01*
X665713Y116810D01*
X666178Y114469D01*
X667504Y112484D01*
X668244Y111990D01*
X667876Y110774D01*
X651225D01*
X650944Y111194D01*
X649456Y112189D01*
X647700Y112538D01*
X645944Y112189D01*
X644456Y111194D01*
X644175Y110774D01*
X636582D01*
X628720Y118637D01*
X629206Y119810D01*
X640970D01*
Y141810D01*
X635284D01*
Y181610D01*
X635284Y181610D01*
X635069Y182691D01*
X634457Y183607D01*
X634457Y183607D01*
X605247Y212817D01*
X604331Y213429D01*
X603250Y213644D01*
X603250Y213644D01*
X594260D01*
X590595Y217309D01*
X590857Y218170D01*
X591113Y218554D01*
X592111Y218752D01*
X593434Y219636D01*
X594318Y220959D01*
X594628Y222520D01*
Y227414D01*
X598230Y231016D01*
X599350Y230417D01*
X599172Y229520D01*
Y222520D01*
X599482Y220959D01*
X600366Y219636D01*
X601689Y218752D01*
X603250Y218442D01*
X604154Y218622D01*
X612683Y210093D01*
X613599Y209481D01*
X614680Y209266D01*
X634688D01*
X700970Y142983D01*
X700484Y141810D01*
X688720D01*
Y133634D01*
X677159D01*
X676156Y135136D01*
X674171Y136462D01*
X673289Y136637D01*
X673330Y137907D01*
X673668Y137951D01*
X675380Y138661D01*
X676851Y139789D01*
X677979Y141260D01*
X678689Y142972D01*
X678764Y143540D01*
X664896D01*
X664971Y142972D01*
X665681Y141260D01*
X666809Y139789D01*
X668280Y138661D01*
X669992Y137951D01*
X670330Y137907D01*
X670371Y136637D01*
X669489Y136462D01*
X667504Y135136D01*
X666178Y133151D01*
X665713Y130810D01*
X666178Y128469D01*
X667504Y126484D01*
X669489Y125158D01*
X671830Y124692D01*
X674171Y125158D01*
X676156Y126484D01*
X677159Y127986D01*
X688720D01*
Y119810D01*
X705220D01*
Y137074D01*
X706393Y137560D01*
X715140Y128813D01*
X715140Y128813D01*
X716057Y128201D01*
X717137Y127986D01*
X719720D01*
Y119810D01*
X736220D01*
Y141810D01*
X719720D01*
Y133634D01*
X718307D01*
X637854Y214087D01*
X636938Y214699D01*
X635857Y214914D01*
X635857Y214914D01*
X615850D01*
X614292Y216472D01*
X614680Y217197D01*
Y226020D01*
X615950D01*
Y227290D01*
X621089D01*
Y229520D01*
X620698Y231486D01*
X620170Y232276D01*
X620769Y233396D01*
X722630D01*
X722630Y233396D01*
X723711Y233611D01*
X724627Y234223D01*
X728697Y238293D01*
X729309Y239209D01*
X729524Y240290D01*
X729524Y240290D01*
Y259510D01*
X734950D01*
Y281510D01*
X718450D01*
Y259510D01*
X723876D01*
Y241460D01*
X721460Y239044D01*
X599440D01*
X599440Y239044D01*
X598359Y238829D01*
X597443Y238217D01*
X597443Y238217D01*
X592352Y233127D01*
X592111Y233288D01*
X590550Y233598D01*
X588989Y233288D01*
X587666Y232404D01*
X586782Y231081D01*
X586472Y229520D01*
Y223092D01*
X585298Y222606D01*
X582387Y225517D01*
X581928Y225824D01*
Y229520D01*
X581618Y231081D01*
X580734Y232404D01*
X579411Y233288D01*
X577850Y233598D01*
X576289Y233288D01*
X574966Y232404D01*
X574082Y231081D01*
X573772Y229520D01*
Y222520D01*
X574082Y220959D01*
X574966Y219636D01*
X576289Y218752D01*
X577850Y218442D01*
X579411Y218752D01*
X580462Y219454D01*
X583196Y216719D01*
X583283Y216590D01*
X586370Y213503D01*
X586499Y213417D01*
X591093Y208823D01*
X591093Y208823D01*
X592009Y208211D01*
X593090Y207996D01*
X593090Y207996D01*
X602080D01*
X619541Y190535D01*
X618942Y189415D01*
X617220Y189758D01*
X615074Y189331D01*
X613255Y188115D01*
X612140Y186447D01*
X610870D01*
X609755Y188115D01*
X607936Y189331D01*
X605790Y189758D01*
X603644Y189331D01*
X601825Y188115D01*
X601443Y187544D01*
X601253Y187417D01*
X600641Y186501D01*
X600426Y185420D01*
X600426Y185420D01*
Y185374D01*
X600182Y184150D01*
X600426Y182926D01*
Y177444D01*
X600366Y177404D01*
X599482Y176081D01*
X599172Y174520D01*
Y167520D01*
X599482Y165959D01*
X600366Y164636D01*
X601689Y163752D01*
X603250Y163442D01*
X604811Y163752D01*
X606134Y164636D01*
X607018Y165959D01*
X607328Y167520D01*
Y174520D01*
X607018Y176081D01*
X606134Y177404D01*
X606122Y177412D01*
X606370Y178657D01*
X607936Y178969D01*
X609755Y180185D01*
X610870Y181853D01*
X612140D01*
X613126Y180378D01*
Y177444D01*
X613066Y177404D01*
X612182Y176081D01*
X611872Y174520D01*
Y167520D01*
X612182Y165959D01*
X613066Y164636D01*
X614389Y163752D01*
X615950Y163442D01*
X617511Y163752D01*
X618834Y164636D01*
X619718Y165959D01*
X620028Y167520D01*
Y174520D01*
X619718Y176081D01*
X618834Y177404D01*
X618774Y177444D01*
Y178851D01*
X619366Y178969D01*
X621185Y180185D01*
X622401Y182004D01*
X622828Y184150D01*
X622485Y185872D01*
X623605Y186471D01*
X629636Y180440D01*
Y141810D01*
X624470D01*
Y124546D01*
X623297Y124060D01*
X620044Y127312D01*
Y139700D01*
X619829Y140781D01*
X619217Y141697D01*
X611597Y149317D01*
X610681Y149929D01*
X609600Y150144D01*
X609600Y150144D01*
X602720D01*
X590562Y162302D01*
X590931Y163517D01*
X592111Y163752D01*
X593434Y164636D01*
X594318Y165959D01*
X594628Y167520D01*
Y174520D01*
X594318Y176081D01*
X593434Y177404D01*
X593374Y177444D01*
Y180378D01*
X594461Y182004D01*
X594888Y184150D01*
X594461Y186296D01*
X593245Y188115D01*
X591426Y189331D01*
X589280Y189758D01*
X587134Y189331D01*
X585315Y188115D01*
X584099Y186296D01*
X583672Y184150D01*
X584099Y182004D01*
X585315Y180185D01*
X587134Y178969D01*
X587726Y178851D01*
Y177444D01*
X587666Y177404D01*
X586782Y176081D01*
X586472Y174520D01*
Y168052D01*
X585298Y167566D01*
X581928Y170936D01*
Y174520D01*
X581618Y176081D01*
X580734Y177404D01*
X580674Y177444D01*
Y181610D01*
X580674Y181610D01*
X580459Y182691D01*
X579847Y183607D01*
X576037Y187417D01*
X575121Y188029D01*
X574040Y188244D01*
X574040Y188244D01*
X562610D01*
X562610Y188244D01*
X561529Y188029D01*
X560613Y187417D01*
X559103Y185907D01*
X557887Y186276D01*
X557631Y187566D01*
X556415Y189385D01*
X554596Y190601D01*
X552450Y191028D01*
X550304Y190601D01*
X549034Y189753D01*
X547914Y190351D01*
Y214990D01*
X551546Y218622D01*
X552450Y218442D01*
X554011Y218752D01*
X555334Y219636D01*
X556218Y220959D01*
X556528Y222520D01*
Y229520D01*
X556218Y231081D01*
X555334Y232404D01*
X554011Y233288D01*
X552450Y233598D01*
X550889Y233288D01*
X549566Y232404D01*
X548682Y231081D01*
X548372Y229520D01*
Y223436D01*
X543093Y218157D01*
X542481Y217241D01*
X542302Y216343D01*
X541698Y216160D01*
X540901Y216160D01*
X539760Y217302D01*
X540128Y218517D01*
X541311Y218752D01*
X542634Y219636D01*
X543518Y220959D01*
X543828Y222520D01*
Y229520D01*
X543518Y231081D01*
X542634Y232404D01*
X542574Y232444D01*
Y259510D01*
X552070D01*
Y281510D01*
X535570D01*
Y259510D01*
X536926D01*
Y237055D01*
X535752Y236569D01*
X521544Y250777D01*
X520628Y251389D01*
X519547Y251604D01*
X519547Y251604D01*
X518300D01*
X517219Y251389D01*
X516852Y251144D01*
X516303Y250777D01*
X516303Y250777D01*
X513460Y247934D01*
X477680D01*
X459360Y266254D01*
Y281510D01*
X442860D01*
Y259510D01*
X458116D01*
X474513Y243113D01*
X474513Y243113D01*
X475429Y242501D01*
X476510Y242286D01*
X476510Y242286D01*
X514630D01*
X514630Y242286D01*
X515711Y242501D01*
X516627Y243113D01*
X518288Y244774D01*
X519558D01*
X529640Y234693D01*
X529154Y233520D01*
X523050D01*
Y226344D01*
X500380D01*
X500380Y226344D01*
X499299Y226129D01*
X498383Y225517D01*
X494573Y221707D01*
X493961Y220791D01*
X493746Y219710D01*
X493746Y219710D01*
Y176430D01*
X457993Y140677D01*
X456820Y141164D01*
Y141810D01*
X440320D01*
Y119810D01*
X456820D01*
Y131516D01*
X468583Y143279D01*
X469703Y142680D01*
X469616Y142240D01*
X469616Y142240D01*
Y127985D01*
X469196Y127704D01*
X468201Y126216D01*
X467852Y124460D01*
X468201Y122704D01*
X469196Y121216D01*
X470684Y120221D01*
X472440Y119872D01*
X474196Y120221D01*
X475684Y121216D01*
X476679Y122704D01*
X477028Y124460D01*
X476679Y126216D01*
X475684Y127704D01*
X475264Y127985D01*
Y141070D01*
X480884Y146690D01*
X482023Y146128D01*
X482016Y146080D01*
X487680D01*
Y151743D01*
X487632Y151737D01*
X487070Y152876D01*
X507487Y173293D01*
X507487Y173293D01*
X508099Y174209D01*
X508314Y175290D01*
X508968Y175420D01*
X511740D01*
Y182596D01*
X513980D01*
X522972Y173604D01*
Y167520D01*
X523282Y165959D01*
X524166Y164636D01*
X525489Y163752D01*
X527050Y163442D01*
X528611Y163752D01*
X529934Y164636D01*
X530818Y165959D01*
X531128Y167520D01*
Y174520D01*
X530818Y176081D01*
X529934Y177404D01*
X528611Y178288D01*
X527050Y178598D01*
X526146Y178419D01*
X517147Y187417D01*
X516231Y188029D01*
X515150Y188244D01*
X515150Y188244D01*
X511740D01*
Y195420D01*
X508314D01*
Y198280D01*
X511740D01*
Y218280D01*
X500793D01*
X500308Y219453D01*
X501550Y220696D01*
X523050D01*
Y218520D01*
X531050D01*
X531050Y218520D01*
Y218520D01*
X531669D01*
X531871Y217506D01*
X532483Y216590D01*
X536926Y212147D01*
Y177444D01*
X536866Y177404D01*
X535982Y176081D01*
X535672Y174520D01*
Y167520D01*
X535982Y165959D01*
X536866Y164636D01*
X538189Y163752D01*
X539750Y163442D01*
X541284Y163747D01*
X542266Y162941D01*
Y141810D01*
X536840D01*
Y119810D01*
X548604D01*
X549090Y118637D01*
X542497Y112044D01*
X494329D01*
X493730Y113164D01*
X494602Y114469D01*
X495067Y116810D01*
X494602Y119151D01*
X493276Y121136D01*
X491291Y122462D01*
X488950Y122928D01*
X486609Y122462D01*
X484624Y121136D01*
X483298Y119151D01*
X482832Y116810D01*
X483298Y114469D01*
X484170Y113164D01*
X483571Y112044D01*
X402889D01*
X402290Y113164D01*
X403162Y114469D01*
X403628Y116810D01*
X403162Y119151D01*
X401836Y121136D01*
X399851Y122462D01*
X397510Y122928D01*
X395169Y122462D01*
X393184Y121136D01*
X391858Y119151D01*
X391393Y116810D01*
X391858Y114469D01*
X392730Y113164D01*
X392131Y112044D01*
X311449D01*
X310850Y113164D01*
X311722Y114469D01*
X312188Y116810D01*
X311722Y119151D01*
X310396Y121136D01*
X308411Y122462D01*
X306070Y122928D01*
X303729Y122462D01*
X301744Y121136D01*
X300418Y119151D01*
X299953Y116810D01*
X300418Y114469D01*
X301290Y113164D01*
X300691Y112044D01*
X276575D01*
X276294Y112464D01*
X274806Y113459D01*
X273050Y113808D01*
X272899Y113778D01*
X268040Y118637D01*
X268526Y119810D01*
X280290D01*
Y141810D01*
X274864D01*
Y181350D01*
X274864Y181350D01*
X274649Y182431D01*
X274037Y183347D01*
X274037Y183347D01*
X249292Y208092D01*
X249778Y209266D01*
X268927D01*
X335210Y142983D01*
X334724Y141810D01*
X322960D01*
Y133634D01*
X311399D01*
X310396Y135136D01*
X308411Y136462D01*
X307529Y136637D01*
X307570Y137907D01*
X307908Y137951D01*
X309620Y138661D01*
X311091Y139789D01*
X312219Y141260D01*
X312929Y142972D01*
X313004Y143540D01*
X299137D01*
X299211Y142972D01*
X299921Y141260D01*
X301049Y139789D01*
X302520Y138661D01*
X304232Y137951D01*
X304570Y137907D01*
X304611Y136637D01*
X303729Y136462D01*
X301744Y135136D01*
X300418Y133151D01*
X299953Y130810D01*
X300418Y128469D01*
X301744Y126484D01*
X303729Y125158D01*
X306070Y124692D01*
X308411Y125158D01*
X310396Y126484D01*
X311399Y127986D01*
X322960D01*
Y119810D01*
X339460D01*
Y137074D01*
X340633Y137560D01*
X349380Y128813D01*
X349380Y128813D01*
X350297Y128201D01*
X351377Y127986D01*
X353960D01*
Y119810D01*
X370460D01*
Y141810D01*
X353960D01*
Y133634D01*
X352547D01*
X272094Y214087D01*
X271178Y214699D01*
X270097Y214914D01*
X270097Y214914D01*
X250090D01*
X248532Y216472D01*
X248920Y217197D01*
Y226020D01*
X250190D01*
Y227290D01*
X255329D01*
Y229520D01*
X254938Y231486D01*
X254410Y232276D01*
X255009Y233396D01*
X349250D01*
X349250Y233396D01*
X350331Y233611D01*
X351247Y234223D01*
X363947Y246923D01*
X363947Y246923D01*
X364559Y247839D01*
X364774Y248920D01*
X364559Y250001D01*
X363947Y250917D01*
X363947Y250917D01*
X363764Y251100D01*
Y259510D01*
X369190D01*
Y281510D01*
X352690D01*
Y259510D01*
X358116D01*
Y249930D01*
X358116Y249930D01*
X358257Y249221D01*
X348080Y239044D01*
X231140D01*
X230059Y238829D01*
X229143Y238217D01*
X229143Y238217D01*
X224458Y233532D01*
X223229Y233288D01*
X221906Y232404D01*
X221022Y231081D01*
X220712Y229520D01*
Y222520D01*
X221022Y220959D01*
X221906Y219636D01*
X223229Y218752D01*
X223400Y218718D01*
X223275Y217454D01*
X215800D01*
X214914Y218340D01*
Y219596D01*
X214974Y219636D01*
X215858Y220959D01*
X216168Y222520D01*
Y229520D01*
X215858Y231081D01*
X214974Y232404D01*
X213651Y233288D01*
X212090Y233598D01*
X210529Y233288D01*
X209206Y232404D01*
X208322Y231081D01*
X208012Y229520D01*
Y222520D01*
X208322Y220959D01*
X209206Y219636D01*
X209266Y219596D01*
Y217170D01*
X209266Y217170D01*
X209481Y216089D01*
X210093Y215173D01*
X212633Y212633D01*
X212633Y212633D01*
X213182Y212266D01*
X213549Y212021D01*
X214630Y211806D01*
X237590D01*
X239658Y209738D01*
X239172Y208564D01*
X220980D01*
X220980Y208564D01*
X219899Y208349D01*
X218983Y207737D01*
X218983Y207737D01*
X210093Y198847D01*
X209481Y197931D01*
X209266Y196850D01*
X209266Y196850D01*
Y177444D01*
X209206Y177404D01*
X208322Y176081D01*
X208012Y174520D01*
Y167520D01*
X208322Y165959D01*
X209206Y164636D01*
X210529Y163752D01*
X211709Y163517D01*
X212078Y162302D01*
X198663Y148887D01*
X198051Y147971D01*
X197836Y146890D01*
X197836Y146890D01*
Y119148D01*
X196816Y118391D01*
X195864Y118680D01*
Y163500D01*
X196802Y164438D01*
X197829Y163752D01*
X199390Y163442D01*
X200951Y163752D01*
X202274Y164636D01*
X203158Y165959D01*
X203468Y167520D01*
Y174520D01*
X203158Y176081D01*
X202274Y177404D01*
X200951Y178288D01*
X199390Y178598D01*
X197829Y178288D01*
X196506Y177404D01*
X195622Y176081D01*
X195312Y174520D01*
Y170936D01*
X191942Y167566D01*
X190768Y168052D01*
Y174520D01*
X190458Y176081D01*
X189574Y177404D01*
X188251Y178288D01*
X187068Y178523D01*
X186700Y179738D01*
X188687Y181726D01*
X189299Y182642D01*
X189514Y183723D01*
X189514Y183723D01*
Y219596D01*
X189574Y219636D01*
X190458Y220959D01*
X190768Y222520D01*
Y229520D01*
X190458Y231081D01*
X189574Y232404D01*
X188251Y233288D01*
X186690Y233598D01*
X185129Y233288D01*
X183806Y232404D01*
X182922Y231081D01*
X182612Y229520D01*
Y222520D01*
X182922Y220959D01*
X183806Y219636D01*
X183866Y219596D01*
Y184893D01*
X179423Y180450D01*
X178811Y179534D01*
X178596Y178453D01*
X178596Y178453D01*
Y177014D01*
X177834Y176783D01*
X176814Y177540D01*
Y213317D01*
X176814Y213317D01*
X176599Y214398D01*
X175987Y215314D01*
X174000Y217302D01*
X174368Y218517D01*
X175551Y218752D01*
X176874Y219636D01*
X177758Y220959D01*
X178068Y222520D01*
Y229520D01*
X177758Y231081D01*
X176874Y232404D01*
X176814Y232444D01*
Y259510D01*
X186310D01*
Y281510D01*
X169810D01*
Y259510D01*
X171166D01*
Y238348D01*
X169992Y237862D01*
X158207Y249647D01*
X157291Y250259D01*
X156210Y250474D01*
X156210Y250474D01*
X127144D01*
X126776Y251690D01*
X127516Y252184D01*
X128842Y254169D01*
X129307Y256510D01*
X128842Y258851D01*
X127516Y260836D01*
X125531Y262162D01*
X123190Y262628D01*
X120849Y262162D01*
X118864Y260836D01*
X117538Y258851D01*
X117072Y256510D01*
X117538Y254169D01*
X118864Y252184D01*
X119605Y251690D01*
X119236Y250474D01*
X110650D01*
X94870Y266254D01*
Y281510D01*
X78370D01*
Y259510D01*
X93626D01*
X107483Y245653D01*
X107483Y245653D01*
X108032Y245286D01*
X108399Y245041D01*
X109480Y244826D01*
X155040D01*
X165173Y234693D01*
X164687Y233520D01*
X157290D01*
Y226344D01*
X133350D01*
X132269Y226129D01*
X131902Y225884D01*
X131353Y225517D01*
X131353Y225517D01*
X128813Y222977D01*
X128201Y222061D01*
X127986Y220980D01*
X127986Y220980D01*
Y171350D01*
X96043Y139408D01*
X94870Y139894D01*
Y141810D01*
X78370D01*
Y119810D01*
X94870D01*
Y130246D01*
X132807Y168183D01*
X133419Y169099D01*
X133634Y170180D01*
X133634Y170180D01*
Y175420D01*
X134750D01*
Y175420D01*
X138176D01*
Y154940D01*
X138176Y154940D01*
X138391Y153859D01*
X139003Y152943D01*
X148962Y142983D01*
X148476Y141810D01*
X138810D01*
Y133634D01*
X128519D01*
X127516Y135136D01*
X125531Y136462D01*
X124649Y136637D01*
X124690Y137907D01*
X125028Y137951D01*
X126740Y138661D01*
X128211Y139789D01*
X129339Y141260D01*
X130049Y142972D01*
X130124Y143540D01*
X116257D01*
X116331Y142972D01*
X117041Y141260D01*
X118169Y139789D01*
X119640Y138661D01*
X121352Y137951D01*
X121690Y137907D01*
X121731Y136637D01*
X120849Y136462D01*
X118864Y135136D01*
X117538Y133151D01*
X117072Y130810D01*
X117538Y128469D01*
X118864Y126484D01*
X120849Y125158D01*
X123190Y124692D01*
X125531Y125158D01*
X127516Y126484D01*
X128519Y127986D01*
X138810D01*
Y119810D01*
X155310D01*
Y140686D01*
X158850D01*
X165716Y133820D01*
Y113400D01*
X165716Y113400D01*
X165931Y112319D01*
X166543Y111403D01*
X188503Y89443D01*
X188503Y89443D01*
X189419Y88831D01*
X190500Y88616D01*
X194122D01*
X194885Y87475D01*
X196704Y86259D01*
X198850Y85832D01*
X200996Y86259D01*
X202815Y87475D01*
X203578Y88616D01*
X467592D01*
X468349Y87596D01*
X468060Y86644D01*
X363857D01*
X362776Y86429D01*
X362065Y85954D01*
X354795D01*
X353546Y86789D01*
X351790Y87138D01*
X350034Y86789D01*
X348546Y85794D01*
X347551Y84306D01*
X347202Y82550D01*
X347551Y80794D01*
X348546Y79306D01*
X350034Y78311D01*
X351790Y77962D01*
X353546Y78311D01*
X355034Y79306D01*
X355703Y80306D01*
X360978D01*
X361347Y79090D01*
X359976Y78174D01*
X358981Y76686D01*
X358632Y74930D01*
X358981Y73174D01*
X359976Y71686D01*
X361464Y70691D01*
X363220Y70342D01*
X364976Y70691D01*
X366464Y71686D01*
X367459Y73174D01*
X367808Y74930D01*
X367710Y75426D01*
X369240Y76956D01*
X467693D01*
X468366Y76283D01*
X468366Y76283D01*
X469282Y75671D01*
X470363Y75456D01*
X533307D01*
X533432Y74192D01*
X532914Y74089D01*
X531426Y73094D01*
X530431Y71606D01*
X530082Y69850D01*
X530431Y68094D01*
X531426Y66606D01*
X532914Y65611D01*
X534670Y65262D01*
X536426Y65611D01*
X537914Y66606D01*
X538195Y67026D01*
X575410D01*
X577619Y64817D01*
X577020Y63697D01*
X576580Y63784D01*
X576580Y63784D01*
X153102D01*
X152886Y63929D01*
X151130Y64278D01*
X149374Y63929D01*
X147886Y62934D01*
X146891Y61446D01*
X146542Y59690D01*
X146891Y57934D01*
X147886Y56446D01*
X149374Y55451D01*
X151130Y55102D01*
X152886Y55451D01*
X154374Y56446D01*
X155369Y57934D01*
X155409Y58136D01*
X276267D01*
X276865Y57016D01*
X276431Y56366D01*
X276082Y54610D01*
X276431Y52854D01*
X277426Y51366D01*
X278914Y50371D01*
X280670Y50022D01*
X282426Y50371D01*
X283914Y51366D01*
X284195Y51786D01*
X297938D01*
X298346Y50583D01*
X296926Y49494D01*
X295157Y47188D01*
X294044Y44502D01*
X293832Y42890D01*
X315768D01*
X315556Y44502D01*
X314443Y47188D01*
X312674Y49494D01*
X311254Y50583D01*
X311663Y51786D01*
X338056D01*
X338304Y50540D01*
X337857Y50355D01*
X335768Y48752D01*
X334165Y46663D01*
X333157Y44230D01*
X332814Y41620D01*
X333157Y39009D01*
X334165Y36577D01*
X335768Y34488D01*
X337857Y32885D01*
X340289Y31877D01*
X342900Y31534D01*
X345510Y31877D01*
X347943Y32885D01*
X350032Y34488D01*
X351635Y36577D01*
X352643Y39009D01*
X352986Y41620D01*
X352643Y44230D01*
X351635Y46663D01*
X350032Y48752D01*
X347943Y50355D01*
X347496Y50540D01*
X347744Y51786D01*
X376156D01*
X376404Y50540D01*
X375957Y50355D01*
X373868Y48752D01*
X372265Y46663D01*
X371257Y44230D01*
X370914Y41620D01*
X371257Y39009D01*
X372265Y36577D01*
X373868Y34488D01*
X375957Y32885D01*
X378390Y31877D01*
X381000Y31534D01*
X383610Y31877D01*
X386043Y32885D01*
X388132Y34488D01*
X389735Y36577D01*
X390743Y39009D01*
X391086Y41620D01*
X390743Y44230D01*
X389735Y46663D01*
X388132Y48752D01*
X386043Y50355D01*
X385596Y50540D01*
X385844Y51786D01*
X414256D01*
X414504Y50540D01*
X414057Y50355D01*
X411968Y48752D01*
X410365Y46663D01*
X409357Y44230D01*
X409014Y41620D01*
X409357Y39009D01*
X410365Y36577D01*
X411968Y34488D01*
X414057Y32885D01*
X416489Y31877D01*
X419100Y31534D01*
X421711Y31877D01*
X424143Y32885D01*
X426232Y34488D01*
X427835Y36577D01*
X428843Y39009D01*
X429186Y41620D01*
X428843Y44230D01*
X427835Y46663D01*
X426232Y48752D01*
X424143Y50355D01*
X423696Y50540D01*
X423944Y51786D01*
X464920D01*
X478045Y38661D01*
X477921Y37397D01*
X477497Y37114D01*
X439420D01*
X438339Y36899D01*
X437423Y36287D01*
X430630Y29494D01*
X306986D01*
X306903Y30762D01*
X307682Y30864D01*
X310368Y31977D01*
X312674Y33746D01*
X314443Y36052D01*
X315556Y38738D01*
X315768Y40350D01*
X293832D01*
X294044Y38738D01*
X295157Y36052D01*
X296926Y33746D01*
X299232Y31977D01*
X301918Y30864D01*
X302697Y30762D01*
X302614Y29494D01*
X63813D01*
X63007Y30476D01*
X63008Y30480D01*
X62659Y32236D01*
X61664Y33724D01*
X60176Y34719D01*
X58420Y35068D01*
X56664Y34719D01*
X55176Y33724D01*
X54181Y32236D01*
X53832Y30480D01*
X54181Y28724D01*
X55176Y27236D01*
X56664Y26241D01*
X58420Y25892D01*
X58916Y25990D01*
X60233Y24673D01*
X61149Y24061D01*
X62230Y23846D01*
X62230Y23846D01*
X431800D01*
X431800Y23846D01*
X432881Y24061D01*
X433797Y24673D01*
X440590Y31466D01*
X448949D01*
X449547Y30346D01*
X449511Y30291D01*
X449495Y30210D01*
X449151Y29696D01*
X448802Y27940D01*
X449151Y26184D01*
X450146Y24696D01*
X451634Y23701D01*
X453390Y23352D01*
X455146Y23701D01*
X456634Y24696D01*
X457629Y26184D01*
X457669Y26386D01*
X549519D01*
X549767Y25140D01*
X547911Y24372D01*
X546031Y22929D01*
X544589Y21049D01*
X543682Y18859D01*
X543372Y16510D01*
X543682Y14160D01*
X544589Y11971D01*
X546031Y10091D01*
X547314Y9107D01*
X546906Y7904D01*
X348293D01*
X347487Y8886D01*
X347488Y8890D01*
X347139Y10646D01*
X346144Y12134D01*
X344656Y13129D01*
X342900Y13478D01*
X341144Y13129D01*
X339656Y12134D01*
X338661Y10646D01*
X338312Y8890D01*
X338661Y7134D01*
X339656Y5646D01*
X340759Y4909D01*
X340903Y4693D01*
X341598Y3998D01*
X341112Y2824D01*
X233132D01*
X232839Y4296D01*
X231844Y5784D01*
X230356Y6779D01*
X228600Y7128D01*
X226844Y6779D01*
X225356Y5784D01*
X224361Y4296D01*
X224012Y2540D01*
X224361Y784D01*
X225356Y-704D01*
X226844Y-1699D01*
X228600Y-2048D01*
X229095Y-1950D01*
X229143Y-1997D01*
X229143Y-1997D01*
X229692Y-2364D01*
X230059Y-2609D01*
X231140Y-2824D01*
X508495D01*
X509148Y-3914D01*
X508677Y-4796D01*
X80732D01*
X80439Y-3324D01*
X79444Y-1836D01*
X77956Y-841D01*
X76200Y-492D01*
X74444Y-841D01*
X72956Y-1836D01*
X71961Y-3324D01*
X71612Y-5080D01*
X71961Y-6836D01*
X72956Y-8324D01*
X74444Y-9319D01*
X76200Y-9668D01*
X76695Y-9570D01*
X76743Y-9617D01*
X76743Y-9617D01*
X77292Y-9984D01*
X77659Y-10229D01*
X78740Y-10444D01*
X543450D01*
Y-16226D01*
X449032D01*
X448739Y-14754D01*
X447744Y-13266D01*
X446256Y-12271D01*
X444500Y-11922D01*
X442744Y-12271D01*
X441256Y-13266D01*
X440261Y-14754D01*
X439912Y-16510D01*
X440261Y-18266D01*
X441256Y-19754D01*
X441414Y-19860D01*
X441046Y-21076D01*
X294046D01*
X293799Y-19834D01*
X292804Y-18346D01*
X291316Y-17351D01*
X289560Y-17002D01*
X287804Y-17351D01*
X286316Y-18346D01*
X285321Y-19834D01*
X284972Y-21590D01*
X285321Y-23346D01*
X285755Y-23996D01*
X285157Y-25116D01*
X250090D01*
X248330Y-23356D01*
X248428Y-22860D01*
X248079Y-21104D01*
X247084Y-19616D01*
X245596Y-18621D01*
X243840Y-18272D01*
X242084Y-18621D01*
X240596Y-19616D01*
X239601Y-21104D01*
X239252Y-22860D01*
X239601Y-24616D01*
X240596Y-26104D01*
X242084Y-27099D01*
X243840Y-27448D01*
X244335Y-27350D01*
X246923Y-29937D01*
X246923Y-29937D01*
X247817Y-30535D01*
X247449Y-31750D01*
X-36830D01*
Y361950D01*
X1131570D01*
Y-31750D01*
D02*
G37*
%LPC*%
G36*
X396240Y151743D02*
X395672Y151669D01*
X393960Y150959D01*
X392489Y149831D01*
X391361Y148360D01*
X390651Y146648D01*
X390577Y146080D01*
X396240D01*
Y151743D01*
D02*
G37*
G36*
X307340D02*
Y146080D01*
X313004D01*
X312929Y146648D01*
X312219Y148360D01*
X311091Y149831D01*
X309620Y150959D01*
X307908Y151669D01*
X307340Y151743D01*
D02*
G37*
G36*
X121920D02*
X121352Y151669D01*
X119640Y150959D01*
X118169Y149831D01*
X117041Y148360D01*
X116331Y146648D01*
X116257Y146080D01*
X121920D01*
Y151743D01*
D02*
G37*
G36*
X33020D02*
Y146080D01*
X38684D01*
X38609Y146648D01*
X37899Y148360D01*
X36771Y149831D01*
X35300Y150959D01*
X33588Y151669D01*
X33020Y151743D01*
D02*
G37*
G36*
X30480D02*
X29912Y151669D01*
X28200Y150959D01*
X26729Y149831D01*
X25601Y148360D01*
X24891Y146648D01*
X24817Y146080D01*
X30480D01*
Y151743D01*
D02*
G37*
G36*
X124460D02*
Y146080D01*
X130124D01*
X130049Y146648D01*
X129339Y148360D01*
X128211Y149831D01*
X126740Y150959D01*
X125028Y151669D01*
X124460Y151743D01*
D02*
G37*
G36*
X304800D02*
X304232Y151669D01*
X302520Y150959D01*
X301049Y149831D01*
X299921Y148360D01*
X299211Y146648D01*
X299137Y146080D01*
X304800D01*
Y151743D01*
D02*
G37*
G36*
X215900D02*
Y146080D01*
X221563D01*
X221489Y146648D01*
X220779Y148360D01*
X219651Y149831D01*
X218180Y150959D01*
X216468Y151669D01*
X215900Y151743D01*
D02*
G37*
G36*
X213360D02*
X212792Y151669D01*
X211080Y150959D01*
X209609Y149831D01*
X208481Y148360D01*
X207771Y146648D01*
X207696Y146080D01*
X213360D01*
Y151743D01*
D02*
G37*
G36*
X855980D02*
Y146080D01*
X861644D01*
X861569Y146648D01*
X860859Y148360D01*
X859731Y149831D01*
X858260Y150959D01*
X856548Y151669D01*
X855980Y151743D01*
D02*
G37*
G36*
X764540D02*
Y146080D01*
X770203D01*
X770129Y146648D01*
X769419Y148360D01*
X768291Y149831D01*
X766820Y150959D01*
X765108Y151669D01*
X764540Y151743D01*
D02*
G37*
G36*
X762000D02*
X761432Y151669D01*
X759720Y150959D01*
X758249Y149831D01*
X757121Y148360D01*
X756411Y146648D01*
X756337Y146080D01*
X762000D01*
Y151743D01*
D02*
G37*
G36*
X578285Y158638D02*
X574159D01*
Y154512D01*
X575051Y154689D01*
X576883Y155914D01*
X578108Y157746D01*
X578285Y158638D01*
D02*
G37*
G36*
X1038860Y151743D02*
Y146080D01*
X1044523D01*
X1044449Y146648D01*
X1043739Y148360D01*
X1042611Y149831D01*
X1041140Y150959D01*
X1039428Y151669D01*
X1038860Y151743D01*
D02*
G37*
G36*
X1036320D02*
X1035752Y151669D01*
X1034040Y150959D01*
X1032569Y149831D01*
X1031441Y148360D01*
X1030731Y146648D01*
X1030657Y146080D01*
X1036320D01*
Y151743D01*
D02*
G37*
G36*
X579120D02*
X578552Y151669D01*
X576840Y150959D01*
X575369Y149831D01*
X574241Y148360D01*
X573531Y146648D01*
X573456Y146080D01*
X579120D01*
Y151743D01*
D02*
G37*
G36*
X490220D02*
Y146080D01*
X495883D01*
X495809Y146648D01*
X495099Y148360D01*
X493971Y149831D01*
X492500Y150959D01*
X490788Y151669D01*
X490220Y151743D01*
D02*
G37*
G36*
X398780D02*
Y146080D01*
X404444D01*
X404369Y146648D01*
X403659Y148360D01*
X402531Y149831D01*
X401060Y150959D01*
X399348Y151669D01*
X398780Y151743D01*
D02*
G37*
G36*
X673100D02*
Y146080D01*
X678764D01*
X678689Y146648D01*
X677979Y148360D01*
X676851Y149831D01*
X675380Y150959D01*
X673668Y151669D01*
X673100Y151743D01*
D02*
G37*
G36*
X670560D02*
X669992Y151669D01*
X668280Y150959D01*
X666809Y149831D01*
X665681Y148360D01*
X664971Y146648D01*
X664896Y146080D01*
X670560D01*
Y151743D01*
D02*
G37*
G36*
X581660D02*
Y146080D01*
X587323D01*
X587249Y146648D01*
X586539Y148360D01*
X585411Y149831D01*
X583940Y150959D01*
X582228Y151669D01*
X581660Y151743D01*
D02*
G37*
G36*
X1044523Y143540D02*
X1030657D01*
X1030731Y142972D01*
X1031441Y141260D01*
X1032569Y139789D01*
X1034040Y138661D01*
X1035752Y137951D01*
X1036090Y137907D01*
X1036131Y136637D01*
X1035249Y136462D01*
X1033264Y135136D01*
X1031938Y133151D01*
X1031472Y130810D01*
X1031938Y128469D01*
X1033264Y126484D01*
X1035249Y125158D01*
X1037590Y124692D01*
X1039931Y125158D01*
X1041916Y126484D01*
X1042745Y127726D01*
X1051990D01*
Y122300D01*
X1073990D01*
Y138800D01*
X1051990D01*
Y133374D01*
X1043093D01*
X1041916Y135136D01*
X1039931Y136462D01*
X1039049Y136637D01*
X1039090Y137907D01*
X1039428Y137951D01*
X1041140Y138661D01*
X1042611Y139789D01*
X1043739Y141260D01*
X1044449Y142972D01*
X1044523Y143540D01*
D02*
G37*
G36*
X836930Y26858D02*
X834581Y26548D01*
X832391Y25642D01*
X830511Y24199D01*
X829069Y22319D01*
X828162Y20129D01*
X827852Y17780D01*
X828162Y15431D01*
X829069Y13241D01*
X830511Y11361D01*
X832391Y9919D01*
X834581Y9012D01*
X836930Y8702D01*
X839279Y9012D01*
X841469Y9919D01*
X843349Y11361D01*
X844791Y13241D01*
X845698Y15431D01*
X846008Y17780D01*
X845698Y20129D01*
X844791Y22319D01*
X843349Y24199D01*
X841469Y25642D01*
X839279Y26548D01*
X836930Y26858D01*
D02*
G37*
G36*
X1270Y22524D02*
Y1270D01*
X22524D01*
X22214Y4419D01*
X20925Y8667D01*
X18832Y12583D01*
X16015Y16015D01*
X12583Y18832D01*
X8667Y20925D01*
X4419Y22214D01*
X1270Y22524D01*
D02*
G37*
G36*
X-1270D02*
X-4419Y22214D01*
X-8667Y20925D01*
X-12583Y18832D01*
X-16015Y16015D01*
X-18832Y12583D01*
X-20925Y8667D01*
X-22214Y4419D01*
X-22524Y1270D01*
X-1270D01*
Y22524D01*
D02*
G37*
G36*
X152400Y51706D02*
X149789Y51363D01*
X147357Y50355D01*
X145268Y48752D01*
X143665Y46663D01*
X142657Y44230D01*
X142314Y41620D01*
X142657Y39009D01*
X143665Y36577D01*
X145268Y34488D01*
X147357Y32885D01*
X149789Y31877D01*
X152400Y31534D01*
X155010Y31877D01*
X157443Y32885D01*
X159532Y34488D01*
X161135Y36577D01*
X162143Y39009D01*
X162486Y41620D01*
X162143Y44230D01*
X161135Y46663D01*
X159532Y48752D01*
X157443Y50355D01*
X155010Y51363D01*
X152400Y51706D01*
D02*
G37*
G36*
X114300D02*
X111690Y51363D01*
X109257Y50355D01*
X107168Y48752D01*
X105565Y46663D01*
X104557Y44230D01*
X104214Y41620D01*
X104557Y39009D01*
X105565Y36577D01*
X107168Y34488D01*
X109257Y32885D01*
X111690Y31877D01*
X114300Y31534D01*
X116910Y31877D01*
X119343Y32885D01*
X121432Y34488D01*
X123035Y36577D01*
X124043Y39009D01*
X124386Y41620D01*
X124043Y44230D01*
X123035Y46663D01*
X121432Y48752D01*
X119343Y50355D01*
X116910Y51363D01*
X114300Y51706D01*
D02*
G37*
G36*
X76200D02*
X73590Y51363D01*
X71157Y50355D01*
X69068Y48752D01*
X67465Y46663D01*
X66457Y44230D01*
X66114Y41620D01*
X66457Y39009D01*
X67465Y36577D01*
X69068Y34488D01*
X71157Y32885D01*
X73590Y31877D01*
X76200Y31534D01*
X78811Y31877D01*
X81243Y32885D01*
X83332Y34488D01*
X84935Y36577D01*
X85943Y39009D01*
X86286Y41620D01*
X85943Y44230D01*
X84935Y46663D01*
X83332Y48752D01*
X81243Y50355D01*
X78811Y51363D01*
X76200Y51706D01*
D02*
G37*
G36*
X629920Y1069D02*
Y-7620D01*
X638609D01*
X638432Y-6269D01*
X637420Y-3827D01*
X635811Y-1729D01*
X633713Y-120D01*
X631271Y892D01*
X629920Y1069D01*
D02*
G37*
G36*
X1096010Y21604D02*
X1091795Y21189D01*
X1087742Y19959D01*
X1084007Y17963D01*
X1080734Y15276D01*
X1078047Y12003D01*
X1076050Y8267D01*
X1074821Y4215D01*
X1074406Y0D01*
X1074821Y-4215D01*
X1076050Y-8267D01*
X1078047Y-12003D01*
X1080734Y-15276D01*
X1084007Y-17963D01*
X1087742Y-19959D01*
X1091795Y-21189D01*
X1096010Y-21604D01*
X1100225Y-21189D01*
X1104277Y-19959D01*
X1108012Y-17963D01*
X1111286Y-15276D01*
X1113973Y-12003D01*
X1115969Y-8267D01*
X1117199Y-4215D01*
X1117614Y0D01*
X1117199Y4215D01*
X1115969Y8267D01*
X1113973Y12003D01*
X1111286Y15276D01*
X1108012Y17963D01*
X1104277Y19959D01*
X1100225Y21189D01*
X1096010Y21604D01*
D02*
G37*
G36*
X22524Y-1270D02*
X1270D01*
Y-22524D01*
X4419Y-22214D01*
X8667Y-20925D01*
X12583Y-18832D01*
X16015Y-16015D01*
X18832Y-12583D01*
X20925Y-8667D01*
X22214Y-4419D01*
X22524Y-1270D01*
D02*
G37*
G36*
X-1270D02*
X-22524D01*
X-22214Y-4419D01*
X-20925Y-8667D01*
X-18832Y-12583D01*
X-16015Y-16015D01*
X-12583Y-18832D01*
X-8667Y-20925D01*
X-4419Y-22214D01*
X-1270Y-22524D01*
Y-1270D01*
D02*
G37*
G36*
X627380Y1069D02*
X626029Y892D01*
X623587Y-120D01*
X621489Y-1729D01*
X619880Y-3827D01*
X618868Y-6269D01*
X618691Y-7620D01*
X627380D01*
Y1069D01*
D02*
G37*
G36*
X963930Y1458D02*
X961581Y1148D01*
X959391Y242D01*
X957511Y-1201D01*
X956068Y-3081D01*
X955162Y-5271D01*
X954852Y-7620D01*
X955162Y-9969D01*
X956068Y-12159D01*
X957511Y-14039D01*
X959391Y-15481D01*
X961581Y-16388D01*
X963930Y-16698D01*
X966280Y-16388D01*
X968469Y-15481D01*
X970349Y-14039D01*
X971792Y-12159D01*
X972698Y-9969D01*
X973008Y-7620D01*
X972698Y-5271D01*
X971792Y-3081D01*
X970349Y-1201D01*
X968469Y242D01*
X966280Y1148D01*
X963930Y1458D01*
D02*
G37*
G36*
X811530D02*
X809181Y1148D01*
X806991Y242D01*
X805111Y-1201D01*
X803669Y-3081D01*
X802762Y-5271D01*
X802452Y-7620D01*
X802762Y-9969D01*
X803669Y-12159D01*
X805111Y-14039D01*
X806991Y-15481D01*
X809181Y-16388D01*
X811530Y-16698D01*
X813879Y-16388D01*
X816069Y-15481D01*
X817949Y-14039D01*
X819391Y-12159D01*
X820298Y-9969D01*
X820608Y-7620D01*
X820298Y-5271D01*
X819391Y-3081D01*
X817949Y-1201D01*
X816069Y242D01*
X813879Y1148D01*
X811530Y1458D01*
D02*
G37*
G36*
X404444Y143540D02*
X390577D01*
X390651Y142972D01*
X391361Y141260D01*
X392489Y139789D01*
X393960Y138661D01*
X395672Y137951D01*
X396010Y137907D01*
X396051Y136637D01*
X395169Y136462D01*
X393184Y135136D01*
X391858Y133151D01*
X391393Y130810D01*
X391858Y128469D01*
X393184Y126484D01*
X395169Y125158D01*
X397510Y124692D01*
X399851Y125158D01*
X401836Y126484D01*
X402839Y127986D01*
X409320D01*
Y119810D01*
X425820D01*
Y141810D01*
X409320D01*
Y133634D01*
X402839D01*
X401836Y135136D01*
X399851Y136462D01*
X398969Y136637D01*
X399010Y137907D01*
X399348Y137951D01*
X401060Y138661D01*
X402531Y139789D01*
X403659Y141260D01*
X404369Y142972D01*
X404444Y143540D01*
D02*
G37*
G36*
X38684D02*
X24817D01*
X24891Y142972D01*
X25601Y141260D01*
X26729Y139789D01*
X28200Y138661D01*
X29912Y137951D01*
X30250Y137907D01*
X30291Y136637D01*
X29409Y136462D01*
X27424Y135136D01*
X26098Y133151D01*
X25633Y130810D01*
X26098Y128469D01*
X27424Y126484D01*
X29409Y125158D01*
X31750Y124692D01*
X34091Y125158D01*
X36076Y126484D01*
X37079Y127986D01*
X47370D01*
Y119810D01*
X63870D01*
Y141810D01*
X47370D01*
Y133634D01*
X37079D01*
X36076Y135136D01*
X34091Y136462D01*
X33209Y136637D01*
X33250Y137907D01*
X33588Y137951D01*
X35300Y138661D01*
X36771Y139789D01*
X37899Y141260D01*
X38609Y142972D01*
X38684Y143540D01*
D02*
G37*
G36*
X1037590Y122928D02*
X1035249Y122462D01*
X1033264Y121136D01*
X1031938Y119151D01*
X1031472Y116810D01*
X1031938Y114469D01*
X1033264Y112484D01*
X1035249Y111158D01*
X1037590Y110693D01*
X1039931Y111158D01*
X1041916Y112484D01*
X1043242Y114469D01*
X1043708Y116810D01*
X1043242Y119151D01*
X1041916Y121136D01*
X1039931Y122462D01*
X1037590Y122928D01*
D02*
G37*
G36*
X861644Y143540D02*
X847776D01*
X847851Y142972D01*
X848561Y141260D01*
X849689Y139789D01*
X851160Y138661D01*
X852872Y137951D01*
X853210Y137907D01*
X853251Y136637D01*
X852369Y136462D01*
X850384Y135136D01*
X849058Y133151D01*
X848593Y130810D01*
X849058Y128469D01*
X850384Y126484D01*
X852369Y125158D01*
X854710Y124692D01*
X857051Y125158D01*
X859036Y126484D01*
X860039Y127986D01*
X874140D01*
Y119810D01*
X890640D01*
Y141810D01*
X874140D01*
Y133634D01*
X860039D01*
X859036Y135136D01*
X857051Y136462D01*
X856169Y136637D01*
X856210Y137907D01*
X856548Y137951D01*
X858260Y138661D01*
X859731Y139789D01*
X860859Y141260D01*
X861569Y142972D01*
X861644Y143540D01*
D02*
G37*
G36*
X770203D02*
X756337D01*
X756411Y142972D01*
X757121Y141260D01*
X758249Y139789D01*
X759720Y138661D01*
X761432Y137951D01*
X761770Y137907D01*
X761811Y136637D01*
X760929Y136462D01*
X758944Y135136D01*
X757618Y133151D01*
X757152Y130810D01*
X757618Y128469D01*
X758944Y126484D01*
X760929Y125158D01*
X763270Y124692D01*
X765611Y125158D01*
X767596Y126484D01*
X768599Y127986D01*
X782700D01*
Y119810D01*
X799200D01*
Y141810D01*
X782700D01*
Y133634D01*
X768599D01*
X767596Y135136D01*
X765611Y136462D01*
X764729Y136637D01*
X764770Y137907D01*
X765108Y137951D01*
X766820Y138661D01*
X768291Y139789D01*
X769419Y141260D01*
X770129Y142972D01*
X770203Y143540D01*
D02*
G37*
G36*
X495883D02*
X482016D01*
X482091Y142972D01*
X482801Y141260D01*
X483929Y139789D01*
X485400Y138661D01*
X487112Y137951D01*
X487450Y137907D01*
X487491Y136637D01*
X486609Y136462D01*
X484624Y135136D01*
X483298Y133151D01*
X482832Y130810D01*
X483298Y128469D01*
X484624Y126484D01*
X486609Y125158D01*
X488950Y124692D01*
X491291Y125158D01*
X493276Y126484D01*
X494279Y127986D01*
X505840D01*
Y119810D01*
X522340D01*
Y141810D01*
X505840D01*
Y133634D01*
X494279D01*
X493276Y135136D01*
X491291Y136462D01*
X490409Y136637D01*
X490450Y137907D01*
X490788Y137951D01*
X492500Y138661D01*
X493971Y139789D01*
X495099Y141260D01*
X495809Y142972D01*
X495883Y143540D01*
D02*
G37*
G36*
X946150Y122928D02*
X943809Y122462D01*
X941824Y121136D01*
X940498Y119151D01*
X940033Y116810D01*
X940498Y114469D01*
X941824Y112484D01*
X943809Y111158D01*
X946150Y110693D01*
X948491Y111158D01*
X950476Y112484D01*
X951802Y114469D01*
X952268Y116810D01*
X951802Y119151D01*
X950476Y121136D01*
X948491Y122462D01*
X946150Y122928D01*
D02*
G37*
G36*
X266700Y51706D02*
X264090Y51363D01*
X261657Y50355D01*
X259568Y48752D01*
X257965Y46663D01*
X256957Y44230D01*
X256614Y41620D01*
X256957Y39009D01*
X257965Y36577D01*
X259568Y34488D01*
X261657Y32885D01*
X264090Y31877D01*
X266700Y31534D01*
X269310Y31877D01*
X271743Y32885D01*
X273832Y34488D01*
X275435Y36577D01*
X276443Y39009D01*
X276786Y41620D01*
X276443Y44230D01*
X275435Y46663D01*
X273832Y48752D01*
X271743Y50355D01*
X269310Y51363D01*
X266700Y51706D01*
D02*
G37*
G36*
X228600D02*
X225989Y51363D01*
X223557Y50355D01*
X221468Y48752D01*
X219865Y46663D01*
X218857Y44230D01*
X218514Y41620D01*
X218857Y39009D01*
X219865Y36577D01*
X221468Y34488D01*
X223557Y32885D01*
X225989Y31877D01*
X228600Y31534D01*
X231210Y31877D01*
X233643Y32885D01*
X235732Y34488D01*
X237335Y36577D01*
X238343Y39009D01*
X238686Y41620D01*
X238343Y44230D01*
X237335Y46663D01*
X235732Y48752D01*
X233643Y50355D01*
X231210Y51363D01*
X228600Y51706D01*
D02*
G37*
G36*
X190500D02*
X187889Y51363D01*
X185457Y50355D01*
X183368Y48752D01*
X181765Y46663D01*
X180757Y44230D01*
X180414Y41620D01*
X180757Y39009D01*
X181765Y36577D01*
X183368Y34488D01*
X185457Y32885D01*
X187889Y31877D01*
X190500Y31534D01*
X193111Y31877D01*
X195543Y32885D01*
X197632Y34488D01*
X199235Y36577D01*
X200243Y39009D01*
X200586Y41620D01*
X200243Y44230D01*
X199235Y46663D01*
X197632Y48752D01*
X195543Y50355D01*
X193111Y51363D01*
X190500Y51706D01*
D02*
G37*
G36*
X580390Y122928D02*
X578049Y122462D01*
X576064Y121136D01*
X574738Y119151D01*
X574272Y116810D01*
X574738Y114469D01*
X576064Y112484D01*
X578049Y111158D01*
X580390Y110693D01*
X582731Y111158D01*
X584716Y112484D01*
X586042Y114469D01*
X586507Y116810D01*
X586042Y119151D01*
X584716Y121136D01*
X582731Y122462D01*
X580390Y122928D01*
D02*
G37*
G36*
X123190D02*
X120849Y122462D01*
X118864Y121136D01*
X117538Y119151D01*
X117072Y116810D01*
X117538Y114469D01*
X118864Y112484D01*
X120849Y111158D01*
X123190Y110693D01*
X125531Y111158D01*
X127516Y112484D01*
X128842Y114469D01*
X129307Y116810D01*
X128842Y119151D01*
X127516Y121136D01*
X125531Y122462D01*
X123190Y122928D01*
D02*
G37*
G36*
X31750D02*
X29409Y122462D01*
X27424Y121136D01*
X26098Y119151D01*
X25633Y116810D01*
X26098Y114469D01*
X27424Y112484D01*
X29409Y111158D01*
X31750Y110693D01*
X34091Y111158D01*
X36076Y112484D01*
X37402Y114469D01*
X37868Y116810D01*
X37402Y119151D01*
X36076Y121136D01*
X34091Y122462D01*
X31750Y122928D01*
D02*
G37*
G36*
X124460Y291444D02*
Y285780D01*
X130124D01*
X130049Y286348D01*
X129339Y288060D01*
X128211Y289531D01*
X126740Y290659D01*
X125028Y291369D01*
X124460Y291444D01*
D02*
G37*
G36*
X213360D02*
X212792Y291369D01*
X211080Y290659D01*
X209609Y289531D01*
X208481Y288060D01*
X207771Y286348D01*
X207696Y285780D01*
X213360D01*
Y291444D01*
D02*
G37*
G36*
X33020D02*
Y285780D01*
X38684D01*
X38609Y286348D01*
X37899Y288060D01*
X36771Y289531D01*
X35300Y290659D01*
X33588Y291369D01*
X33020Y291444D01*
D02*
G37*
G36*
X121920D02*
X121352Y291369D01*
X119640Y290659D01*
X118169Y289531D01*
X117041Y288060D01*
X116331Y286348D01*
X116257Y285780D01*
X121920D01*
Y291444D01*
D02*
G37*
G36*
X307340D02*
Y285780D01*
X313004D01*
X312929Y286348D01*
X312219Y288060D01*
X311091Y289531D01*
X309620Y290659D01*
X307908Y291369D01*
X307340Y291444D01*
D02*
G37*
G36*
X396240D02*
X395672Y291369D01*
X393960Y290659D01*
X392489Y289531D01*
X391361Y288060D01*
X390651Y286348D01*
X390577Y285780D01*
X396240D01*
Y291444D01*
D02*
G37*
G36*
X215900D02*
Y285780D01*
X221563D01*
X221489Y286348D01*
X220779Y288060D01*
X219651Y289531D01*
X218180Y290659D01*
X216468Y291369D01*
X215900Y291444D01*
D02*
G37*
G36*
X304800D02*
X304232Y291369D01*
X302520Y290659D01*
X301049Y289531D01*
X299921Y288060D01*
X299211Y286348D01*
X299137Y285780D01*
X304800D01*
Y291444D01*
D02*
G37*
G36*
X587323Y283240D02*
X573456D01*
X573531Y282672D01*
X574241Y280960D01*
X575369Y279489D01*
X576840Y278361D01*
X578552Y277651D01*
X578890Y277607D01*
X578931Y276337D01*
X578049Y276162D01*
X576064Y274836D01*
X574738Y272851D01*
X574272Y270510D01*
X574738Y268169D01*
X576064Y266184D01*
X578049Y264858D01*
X580390Y264393D01*
X582731Y264858D01*
X584716Y266184D01*
X585719Y267686D01*
X596010D01*
Y259510D01*
X607774D01*
X608260Y258337D01*
X600397Y250474D01*
X584344D01*
X583975Y251690D01*
X584716Y252184D01*
X586042Y254169D01*
X586507Y256510D01*
X586042Y258851D01*
X584716Y260836D01*
X582731Y262162D01*
X580390Y262628D01*
X578049Y262162D01*
X576064Y260836D01*
X574738Y258851D01*
X574272Y256510D01*
X574738Y254169D01*
X576064Y252184D01*
X576805Y251690D01*
X576436Y250474D01*
X568960D01*
X568960Y250474D01*
X567879Y250259D01*
X566963Y249647D01*
X563153Y245837D01*
X562541Y244921D01*
X562326Y243840D01*
X562326Y243840D01*
Y232444D01*
X562266Y232404D01*
X561382Y231081D01*
X561072Y229520D01*
Y222520D01*
X561382Y220959D01*
X562266Y219636D01*
X563589Y218752D01*
X565150Y218442D01*
X566711Y218752D01*
X568034Y219636D01*
X568918Y220959D01*
X569228Y222520D01*
Y229520D01*
X568918Y231081D01*
X568034Y232404D01*
X567974Y232444D01*
Y242670D01*
X570130Y244826D01*
X601567D01*
X601567Y244826D01*
X602648Y245041D01*
X603564Y245653D01*
X625597Y267686D01*
X627010D01*
Y259510D01*
X643510D01*
Y281510D01*
X627010D01*
Y273334D01*
X624427D01*
X623347Y273119D01*
X622980Y272874D01*
X622430Y272507D01*
X622430Y272507D01*
X613683Y263760D01*
X612510Y264246D01*
Y281510D01*
X596010D01*
Y273334D01*
X585719D01*
X584716Y274836D01*
X582731Y276162D01*
X581849Y276337D01*
X581890Y277607D01*
X582228Y277651D01*
X583940Y278361D01*
X585411Y279489D01*
X586539Y280960D01*
X587249Y282672D01*
X587323Y283240D01*
D02*
G37*
G36*
X678764D02*
X664896D01*
X664971Y282672D01*
X665681Y280960D01*
X666809Y279489D01*
X668280Y278361D01*
X669992Y277651D01*
X670330Y277607D01*
X670371Y276337D01*
X669489Y276162D01*
X667504Y274836D01*
X666178Y272851D01*
X665713Y270510D01*
X666178Y268169D01*
X667504Y266184D01*
X669489Y264858D01*
X671830Y264393D01*
X674171Y264858D01*
X676156Y266184D01*
X677159Y267686D01*
X687450D01*
Y259510D01*
X703950D01*
Y281510D01*
X687450D01*
Y273334D01*
X677159D01*
X676156Y274836D01*
X674171Y276162D01*
X673289Y276337D01*
X673330Y277607D01*
X673668Y277651D01*
X675380Y278361D01*
X676851Y279489D01*
X677979Y280960D01*
X678689Y282672D01*
X678764Y283240D01*
D02*
G37*
G36*
X404444D02*
X390577D01*
X390651Y282672D01*
X391361Y280960D01*
X392489Y279489D01*
X393960Y278361D01*
X395672Y277651D01*
X396010Y277607D01*
X396051Y276337D01*
X395169Y276162D01*
X393184Y274836D01*
X391858Y272851D01*
X391393Y270510D01*
X391858Y268169D01*
X393184Y266184D01*
X395169Y264858D01*
X397510Y264393D01*
X399851Y264858D01*
X401836Y266184D01*
X402839Y267686D01*
X411860D01*
Y259510D01*
X428360D01*
Y281510D01*
X411860D01*
Y273334D01*
X402839D01*
X401836Y274836D01*
X399851Y276162D01*
X398969Y276337D01*
X399010Y277607D01*
X399348Y277651D01*
X401060Y278361D01*
X402531Y279489D01*
X403659Y280960D01*
X404369Y282672D01*
X404444Y283240D01*
D02*
G37*
G36*
X495883D02*
X482016D01*
X482091Y282672D01*
X482801Y280960D01*
X483929Y279489D01*
X485400Y278361D01*
X487112Y277651D01*
X487450Y277607D01*
X487491Y276337D01*
X486609Y276162D01*
X484624Y274836D01*
X483298Y272851D01*
X482832Y270510D01*
X483298Y268169D01*
X484624Y266184D01*
X486609Y264858D01*
X488950Y264393D01*
X491291Y264858D01*
X493276Y266184D01*
X494279Y267686D01*
X504570D01*
Y259510D01*
X521070D01*
Y281510D01*
X504570D01*
Y273334D01*
X494279D01*
X493276Y274836D01*
X491291Y276162D01*
X490409Y276337D01*
X490450Y277607D01*
X490788Y277651D01*
X492500Y278361D01*
X493971Y279489D01*
X495099Y280960D01*
X495809Y282672D01*
X495883Y283240D01*
D02*
G37*
G36*
X1044523D02*
X1030657D01*
X1030731Y282672D01*
X1031441Y280960D01*
X1032569Y279489D01*
X1034040Y278361D01*
X1035752Y277651D01*
X1036090Y277607D01*
X1036131Y276337D01*
X1035249Y276162D01*
X1033264Y274836D01*
X1031938Y272851D01*
X1031472Y270510D01*
X1031938Y268169D01*
X1033264Y266184D01*
X1035249Y264858D01*
X1037590Y264393D01*
X1039931Y264858D01*
X1041916Y266184D01*
X1042919Y267686D01*
X1051990D01*
Y259980D01*
X1073990D01*
Y276480D01*
X1051990D01*
Y273334D01*
X1042919D01*
X1041916Y274836D01*
X1039931Y276162D01*
X1039049Y276337D01*
X1039090Y277607D01*
X1039428Y277651D01*
X1041140Y278361D01*
X1042611Y279489D01*
X1043739Y280960D01*
X1044449Y282672D01*
X1044523Y283240D01*
D02*
G37*
G36*
X30480Y291444D02*
X29912Y291369D01*
X28200Y290659D01*
X26729Y289531D01*
X25601Y288060D01*
X24891Y286348D01*
X24817Y285780D01*
X30480D01*
Y291444D01*
D02*
G37*
G36*
X770203Y283240D02*
X756337D01*
X756411Y282672D01*
X757121Y280960D01*
X758249Y279489D01*
X759720Y278361D01*
X761432Y277651D01*
X761770Y277607D01*
X761811Y276337D01*
X760929Y276162D01*
X758944Y274836D01*
X757618Y272851D01*
X757152Y270510D01*
X757618Y268169D01*
X758944Y266184D01*
X760929Y264858D01*
X763270Y264393D01*
X765611Y264858D01*
X767596Y266184D01*
X768599Y267686D01*
X780160D01*
Y259510D01*
X796660D01*
Y281510D01*
X780160D01*
Y273334D01*
X768599D01*
X767596Y274836D01*
X765611Y276162D01*
X764729Y276337D01*
X764770Y277607D01*
X765108Y277651D01*
X766820Y278361D01*
X768291Y279489D01*
X769419Y280960D01*
X770129Y282672D01*
X770203Y283240D01*
D02*
G37*
G36*
X861644D02*
X847776D01*
X847851Y282672D01*
X848561Y280960D01*
X849689Y279489D01*
X851160Y278361D01*
X852872Y277651D01*
X853210Y277607D01*
X853251Y276337D01*
X852369Y276162D01*
X850384Y274836D01*
X849058Y272851D01*
X848593Y270510D01*
X849058Y268169D01*
X850384Y266184D01*
X852369Y264858D01*
X854710Y264393D01*
X857051Y264858D01*
X859036Y266184D01*
X860039Y267686D01*
X871600D01*
Y259510D01*
X888100D01*
Y281510D01*
X871600D01*
Y273334D01*
X860039D01*
X859036Y274836D01*
X857051Y276162D01*
X856169Y276337D01*
X856210Y277607D01*
X856548Y277651D01*
X858260Y278361D01*
X859731Y279489D01*
X860859Y280960D01*
X861569Y282672D01*
X861644Y283240D01*
D02*
G37*
G36*
X947420Y291444D02*
Y285780D01*
X953083D01*
X953009Y286348D01*
X952299Y288060D01*
X951171Y289531D01*
X949700Y290659D01*
X947988Y291369D01*
X947420Y291444D01*
D02*
G37*
G36*
X1036320D02*
X1035752Y291369D01*
X1034040Y290659D01*
X1032569Y289531D01*
X1031441Y288060D01*
X1030731Y286348D01*
X1030657Y285780D01*
X1036320D01*
Y291444D01*
D02*
G37*
G36*
X855980D02*
Y285780D01*
X861644D01*
X861569Y286348D01*
X860859Y288060D01*
X859731Y289531D01*
X858260Y290659D01*
X856548Y291369D01*
X855980Y291444D01*
D02*
G37*
G36*
X944880D02*
X944312Y291369D01*
X942600Y290659D01*
X941129Y289531D01*
X940001Y288060D01*
X939291Y286348D01*
X939217Y285780D01*
X944880D01*
Y291444D01*
D02*
G37*
G36*
X0Y349264D02*
X-4215Y348849D01*
X-8267Y347620D01*
X-12003Y345623D01*
X-15276Y342936D01*
X-17963Y339663D01*
X-19959Y335928D01*
X-21189Y331875D01*
X-21604Y327660D01*
X-21189Y323445D01*
X-19959Y319393D01*
X-17963Y315658D01*
X-15276Y312384D01*
X-12003Y309697D01*
X-8267Y307701D01*
X-4215Y306471D01*
X0Y306056D01*
X4215Y306471D01*
X8267Y307701D01*
X12003Y309697D01*
X15276Y312384D01*
X17963Y315658D01*
X19959Y319393D01*
X21189Y323445D01*
X21604Y327660D01*
X21189Y331875D01*
X19959Y335928D01*
X17963Y339663D01*
X15276Y342936D01*
X12003Y345623D01*
X8267Y347620D01*
X4215Y348849D01*
X0Y349264D01*
D02*
G37*
G36*
X1096010D02*
X1091795Y348849D01*
X1087742Y347620D01*
X1084007Y345623D01*
X1080734Y342936D01*
X1078047Y339663D01*
X1076050Y335928D01*
X1074821Y331875D01*
X1074406Y327660D01*
X1074821Y323445D01*
X1076050Y319393D01*
X1078047Y315658D01*
X1080734Y312384D01*
X1084007Y309697D01*
X1087742Y307701D01*
X1091795Y306471D01*
X1096010Y306056D01*
X1100225Y306471D01*
X1104277Y307701D01*
X1108012Y309697D01*
X1111286Y312384D01*
X1113973Y315658D01*
X1115969Y319393D01*
X1117199Y323445D01*
X1117614Y327660D01*
X1117199Y331875D01*
X1115969Y335928D01*
X1113973Y339663D01*
X1111286Y342936D01*
X1108012Y345623D01*
X1104277Y347620D01*
X1100225Y348849D01*
X1096010Y349264D01*
D02*
G37*
G36*
X1038860Y291444D02*
Y285780D01*
X1044523D01*
X1044449Y286348D01*
X1043739Y288060D01*
X1042611Y289531D01*
X1041140Y290659D01*
X1039428Y291369D01*
X1038860Y291444D01*
D02*
G37*
G36*
X749300Y295168D02*
X747154Y294741D01*
X745445Y293599D01*
X744947Y294097D01*
X744031Y294709D01*
X742950Y294924D01*
X742950Y294924D01*
X665480D01*
X664399Y294709D01*
X663483Y294097D01*
X652894Y283508D01*
X651904Y283311D01*
X650085Y282095D01*
X648869Y280276D01*
X648442Y278130D01*
X648869Y275984D01*
X650085Y274165D01*
X651904Y272949D01*
X654050Y272522D01*
X656196Y272949D01*
X658015Y274165D01*
X659231Y275984D01*
X659658Y278130D01*
X659231Y280276D01*
X658598Y281224D01*
X663764Y286390D01*
X664903Y285828D01*
X664896Y285780D01*
X678764D01*
X678689Y286348D01*
X677979Y288060D01*
X677921Y288137D01*
X678483Y289276D01*
X741780D01*
X743493Y287563D01*
X743493Y287563D01*
X744042Y287196D01*
X744409Y286951D01*
X744432Y286946D01*
X745335Y285595D01*
X747154Y284379D01*
X749300Y283952D01*
X751446Y284379D01*
X753265Y285595D01*
X754481Y287414D01*
X754908Y289560D01*
X754481Y291706D01*
X753265Y293525D01*
X751446Y294741D01*
X749300Y295168D01*
D02*
G37*
G36*
X490220Y291444D02*
Y285780D01*
X495883D01*
X495809Y286348D01*
X495099Y288060D01*
X493971Y289531D01*
X492500Y290659D01*
X490788Y291369D01*
X490220Y291444D01*
D02*
G37*
G36*
X579120D02*
X578552Y291369D01*
X576840Y290659D01*
X575369Y289531D01*
X574241Y288060D01*
X573531Y286348D01*
X573456Y285780D01*
X579120D01*
Y291444D01*
D02*
G37*
G36*
X398780D02*
Y285780D01*
X404444D01*
X404369Y286348D01*
X403659Y288060D01*
X402531Y289531D01*
X401060Y290659D01*
X399348Y291369D01*
X398780Y291444D01*
D02*
G37*
G36*
X487680D02*
X487112Y291369D01*
X485400Y290659D01*
X483929Y289531D01*
X482801Y288060D01*
X482091Y286348D01*
X482016Y285780D01*
X487680D01*
Y291444D01*
D02*
G37*
G36*
X764540D02*
Y285780D01*
X770203D01*
X770129Y286348D01*
X769419Y288060D01*
X768291Y289531D01*
X766820Y290659D01*
X765108Y291369D01*
X764540Y291444D01*
D02*
G37*
G36*
X853440D02*
X852872Y291369D01*
X851160Y290659D01*
X849689Y289531D01*
X848561Y288060D01*
X847851Y286348D01*
X847776Y285780D01*
X853440D01*
Y291444D01*
D02*
G37*
G36*
X581660D02*
Y285780D01*
X587323D01*
X587249Y286348D01*
X586539Y288060D01*
X585411Y289531D01*
X583940Y290659D01*
X582228Y291369D01*
X581660Y291444D01*
D02*
G37*
G36*
X762000D02*
X761432Y291369D01*
X759720Y290659D01*
X758249Y289531D01*
X757121Y288060D01*
X756411Y286348D01*
X756337Y285780D01*
X762000D01*
Y291444D01*
D02*
G37*
G36*
X313004Y283240D02*
X299137D01*
X299211Y282672D01*
X299921Y280960D01*
X301049Y279489D01*
X302520Y278361D01*
X304232Y277651D01*
X304570Y277607D01*
X304611Y276337D01*
X303729Y276162D01*
X301744Y274836D01*
X300418Y272851D01*
X299953Y270510D01*
X300418Y268169D01*
X301744Y266184D01*
X303729Y264858D01*
X306070Y264393D01*
X308411Y264858D01*
X310396Y266184D01*
X311399Y267686D01*
X321690D01*
Y259510D01*
X338190D01*
Y281510D01*
X321690D01*
Y273334D01*
X311399D01*
X310396Y274836D01*
X308411Y276162D01*
X307529Y276337D01*
X307570Y277607D01*
X307908Y277651D01*
X309620Y278361D01*
X311091Y279489D01*
X312219Y280960D01*
X312929Y282672D01*
X313004Y283240D01*
D02*
G37*
G36*
X850540Y207010D02*
X835960D01*
Y197358D01*
X835960Y197358D01*
X835960D01*
X835960Y197240D01*
Y196850D01*
Y196460D01*
X835960Y196342D01*
X835960Y196342D01*
X835960D01*
Y186690D01*
X850540D01*
Y196342D01*
X850540Y196342D01*
X850540D01*
X850540Y196460D01*
Y196850D01*
Y197240D01*
X850540Y197358D01*
X850540Y197358D01*
X850540D01*
Y207010D01*
D02*
G37*
G36*
X111730Y219320D02*
X105710D01*
Y209550D01*
X111730D01*
Y219320D01*
D02*
G37*
G36*
X120290Y207010D02*
X105710D01*
Y197358D01*
X105710Y197358D01*
X105710D01*
X105710Y197240D01*
Y196850D01*
Y196460D01*
X105710Y196342D01*
X105710Y196342D01*
X105710D01*
Y186690D01*
X120290D01*
Y196342D01*
X120290Y196342D01*
X120290D01*
X120290Y196460D01*
Y196850D01*
Y197240D01*
X120290Y197358D01*
X120290Y197358D01*
X120290D01*
Y207010D01*
D02*
G37*
G36*
X484780D02*
X470200D01*
Y197358D01*
X470200Y197358D01*
X470200D01*
X470200Y197240D01*
Y196850D01*
Y196460D01*
X470200Y196342D01*
X470200Y196342D01*
X470200D01*
Y186690D01*
X484780D01*
Y196342D01*
X484780Y196342D01*
X484780D01*
X484780Y196460D01*
Y196850D01*
Y197240D01*
X484780Y197358D01*
X484780Y197358D01*
X484780D01*
Y207010D01*
D02*
G37*
G36*
Y219320D02*
X478760D01*
Y209550D01*
X484780D01*
Y219320D01*
D02*
G37*
G36*
X841980D02*
X835960D01*
Y209550D01*
X841980D01*
Y219320D01*
D02*
G37*
G36*
X120290D02*
X114270D01*
Y209550D01*
X120290D01*
Y219320D01*
D02*
G37*
G36*
X476220D02*
X470200D01*
Y209550D01*
X476220D01*
Y219320D01*
D02*
G37*
G36*
X111730Y184150D02*
X105710D01*
Y174380D01*
X111730D01*
Y184150D01*
D02*
G37*
G36*
X120290D02*
X114270D01*
Y174380D01*
X120290D01*
Y184150D01*
D02*
G37*
G36*
X877500Y218280D02*
X865000D01*
Y198280D01*
X868426D01*
Y195420D01*
X865000D01*
Y175420D01*
X865000Y175420D01*
X865000D01*
X865327Y174631D01*
X837473Y146777D01*
X836861Y145861D01*
X836646Y144780D01*
X836646Y144780D01*
Y129255D01*
X836226Y128974D01*
X835231Y127486D01*
X834882Y125730D01*
X835231Y123974D01*
X836226Y122486D01*
X837714Y121491D01*
X839470Y121142D01*
X841226Y121491D01*
X842714Y122486D01*
X843709Y123974D01*
X844058Y125730D01*
X843709Y127486D01*
X842714Y128974D01*
X842294Y129255D01*
Y143610D01*
X847331Y148647D01*
X848387Y147941D01*
X847851Y146648D01*
X847776Y146080D01*
X853440D01*
Y151743D01*
X852872Y151669D01*
X851579Y151133D01*
X850873Y152189D01*
X873247Y174563D01*
X873820Y175420D01*
X877256D01*
X881153Y171523D01*
X881153Y171523D01*
X882069Y170911D01*
X883150Y170696D01*
X883150Y170696D01*
X887462D01*
Y167520D01*
X887772Y165959D01*
X888656Y164636D01*
X889979Y163752D01*
X891540Y163442D01*
X893101Y163752D01*
X894424Y164636D01*
X895308Y165959D01*
X895618Y167520D01*
Y174520D01*
X895308Y176081D01*
X894424Y177404D01*
X893101Y178288D01*
X891540Y178598D01*
X889979Y178288D01*
X888656Y177404D01*
X887948Y176344D01*
X884320D01*
X877500Y183164D01*
Y195420D01*
X874074D01*
Y198280D01*
X877500D01*
Y218280D01*
D02*
G37*
G36*
X955040Y192298D02*
X952894Y191871D01*
X951075Y190655D01*
X949859Y188836D01*
X949432Y186690D01*
X949859Y184544D01*
X951075Y182725D01*
X952216Y181962D01*
Y177444D01*
X952156Y177404D01*
X951272Y176081D01*
X950962Y174520D01*
Y167520D01*
X951272Y165959D01*
X952156Y164636D01*
X953479Y163752D01*
X955040Y163442D01*
X956601Y163752D01*
X957924Y164636D01*
X958808Y165959D01*
X959118Y167520D01*
Y174520D01*
X958808Y176081D01*
X957924Y177404D01*
X957864Y177444D01*
Y181962D01*
X959005Y182725D01*
X960221Y184544D01*
X960648Y186690D01*
X960221Y188836D01*
X959005Y190655D01*
X957186Y191871D01*
X955040Y192298D01*
D02*
G37*
G36*
X841980Y184150D02*
X835960D01*
Y174380D01*
X841980D01*
Y184150D01*
D02*
G37*
G36*
X850540D02*
X844520D01*
Y174380D01*
X850540D01*
Y184150D01*
D02*
G37*
G36*
X476220D02*
X470200D01*
Y174380D01*
X476220D01*
Y184150D01*
D02*
G37*
G36*
X484780D02*
X478760D01*
Y174380D01*
X484780D01*
Y184150D01*
D02*
G37*
G36*
X763270Y262628D02*
X760929Y262162D01*
X758944Y260836D01*
X757618Y258851D01*
X757152Y256510D01*
X757618Y254169D01*
X758944Y252184D01*
X760929Y250858D01*
X763270Y250392D01*
X765611Y250858D01*
X767596Y252184D01*
X768922Y254169D01*
X769388Y256510D01*
X768922Y258851D01*
X767596Y260836D01*
X765611Y262162D01*
X763270Y262628D01*
D02*
G37*
G36*
X854710D02*
X852369Y262162D01*
X850384Y260836D01*
X849058Y258851D01*
X848593Y256510D01*
X849058Y254169D01*
X850384Y252184D01*
X852369Y250858D01*
X854710Y250392D01*
X857051Y250858D01*
X859036Y252184D01*
X860362Y254169D01*
X860827Y256510D01*
X860362Y258851D01*
X859036Y260836D01*
X857051Y262162D01*
X854710Y262628D01*
D02*
G37*
G36*
X488950D02*
X486609Y262162D01*
X484624Y260836D01*
X483298Y258851D01*
X482832Y256510D01*
X483298Y254169D01*
X484624Y252184D01*
X486609Y250858D01*
X488950Y250392D01*
X491291Y250858D01*
X493276Y252184D01*
X494602Y254169D01*
X495067Y256510D01*
X494602Y258851D01*
X493276Y260836D01*
X491291Y262162D01*
X488950Y262628D01*
D02*
G37*
G36*
X671830D02*
X669489Y262162D01*
X667504Y260836D01*
X666178Y258851D01*
X665713Y256510D01*
X666178Y254169D01*
X667504Y252184D01*
X669489Y250858D01*
X671830Y250392D01*
X674171Y250858D01*
X676156Y252184D01*
X677482Y254169D01*
X677947Y256510D01*
X677482Y258851D01*
X676156Y260836D01*
X674171Y262162D01*
X671830Y262628D01*
D02*
G37*
G36*
X130124Y283240D02*
X116257D01*
X116331Y282672D01*
X117041Y280960D01*
X118169Y279489D01*
X119640Y278361D01*
X121352Y277651D01*
X121690Y277607D01*
X121731Y276337D01*
X120849Y276162D01*
X118864Y274836D01*
X117538Y272851D01*
X117072Y270510D01*
X117538Y268169D01*
X118864Y266184D01*
X120849Y264858D01*
X123190Y264393D01*
X125531Y264858D01*
X127516Y266184D01*
X128519Y267686D01*
X138810D01*
Y259510D01*
X155310D01*
Y281510D01*
X138810D01*
Y273334D01*
X128519D01*
X127516Y274836D01*
X125531Y276162D01*
X124649Y276337D01*
X124690Y277607D01*
X125028Y277651D01*
X126740Y278361D01*
X128211Y279489D01*
X129339Y280960D01*
X130049Y282672D01*
X130124Y283240D01*
D02*
G37*
G36*
X221563D02*
X207696D01*
X207771Y282672D01*
X208481Y280960D01*
X209609Y279489D01*
X211080Y278361D01*
X212792Y277651D01*
X213130Y277607D01*
X213171Y276337D01*
X212289Y276162D01*
X210304Y274836D01*
X208978Y272851D01*
X208512Y270510D01*
X208978Y268169D01*
X210304Y266184D01*
X212289Y264858D01*
X214630Y264393D01*
X216971Y264858D01*
X218956Y266184D01*
X219959Y267686D01*
X231520D01*
Y259510D01*
X243284D01*
X243770Y258337D01*
X235907Y250474D01*
X218584D01*
X218216Y251690D01*
X218956Y252184D01*
X220282Y254169D01*
X220748Y256510D01*
X220282Y258851D01*
X218956Y260836D01*
X216971Y262162D01*
X214630Y262628D01*
X212289Y262162D01*
X210304Y260836D01*
X208978Y258851D01*
X208512Y256510D01*
X208978Y254169D01*
X210304Y252184D01*
X211045Y251690D01*
X210676Y250474D01*
X205740D01*
X204659Y250259D01*
X203743Y249647D01*
X203743Y249647D01*
X197393Y243297D01*
X196781Y242381D01*
X196566Y241300D01*
X196566Y241300D01*
Y232444D01*
X196506Y232404D01*
X195622Y231081D01*
X195312Y229520D01*
Y222520D01*
X195622Y220959D01*
X196506Y219636D01*
X197829Y218752D01*
X199390Y218442D01*
X200951Y218752D01*
X202274Y219636D01*
X203158Y220959D01*
X203468Y222520D01*
Y229520D01*
X203158Y231081D01*
X202274Y232404D01*
X202214Y232444D01*
Y240130D01*
X206910Y244826D01*
X237077D01*
X237077Y244826D01*
X238158Y245041D01*
X239074Y245653D01*
X261107Y267686D01*
X262520D01*
Y259510D01*
X279020D01*
Y281510D01*
X262520D01*
Y273334D01*
X259937D01*
X258857Y273119D01*
X258490Y272874D01*
X257940Y272507D01*
X257940Y272507D01*
X249193Y263760D01*
X248020Y264246D01*
Y281510D01*
X231520D01*
Y273334D01*
X219959D01*
X218956Y274836D01*
X216971Y276162D01*
X216089Y276337D01*
X216130Y277607D01*
X216468Y277651D01*
X218180Y278361D01*
X219651Y279489D01*
X220779Y280960D01*
X221489Y282672D01*
X221563Y283240D01*
D02*
G37*
G36*
X1037590Y262628D02*
X1035249Y262162D01*
X1033264Y260836D01*
X1031938Y258851D01*
X1031472Y256510D01*
X1031938Y254169D01*
X1033264Y252184D01*
X1035249Y250858D01*
X1037590Y250392D01*
X1039931Y250858D01*
X1041916Y252184D01*
X1043242Y254169D01*
X1043708Y256510D01*
X1043242Y258851D01*
X1041916Y260836D01*
X1039931Y262162D01*
X1037590Y262628D01*
D02*
G37*
G36*
X38684Y283240D02*
X24817D01*
X24891Y282672D01*
X25601Y280960D01*
X26729Y279489D01*
X28200Y278361D01*
X29912Y277651D01*
X30250Y277607D01*
X30291Y276337D01*
X29409Y276162D01*
X27424Y274836D01*
X26098Y272851D01*
X25633Y270510D01*
X26098Y268169D01*
X27424Y266184D01*
X29409Y264858D01*
X31750Y264393D01*
X34091Y264858D01*
X36076Y266184D01*
X37079Y267686D01*
X47370D01*
Y259510D01*
X63870D01*
Y281510D01*
X47370D01*
Y273334D01*
X37079D01*
X36076Y274836D01*
X34091Y276162D01*
X33209Y276337D01*
X33250Y277607D01*
X33588Y277651D01*
X35300Y278361D01*
X36771Y279489D01*
X37899Y280960D01*
X38609Y282672D01*
X38684Y283240D01*
D02*
G37*
G36*
X621089Y224750D02*
X617220D01*
Y217634D01*
X617916Y217772D01*
X619584Y218886D01*
X620698Y220553D01*
X621089Y222520D01*
Y224750D01*
D02*
G37*
G36*
X985579D02*
X981710D01*
Y217634D01*
X982406Y217772D01*
X984074Y218886D01*
X985188Y220553D01*
X985579Y222520D01*
Y224750D01*
D02*
G37*
G36*
X850540Y219320D02*
X844520D01*
Y209550D01*
X850540D01*
Y219320D01*
D02*
G37*
G36*
X255329Y224750D02*
X251460D01*
Y217634D01*
X252157Y217772D01*
X253824Y218886D01*
X254938Y220553D01*
X255329Y222520D01*
Y224750D01*
D02*
G37*
G36*
X306070Y262628D02*
X303729Y262162D01*
X301744Y260836D01*
X300418Y258851D01*
X299953Y256510D01*
X300418Y254169D01*
X301744Y252184D01*
X303729Y250858D01*
X306070Y250392D01*
X308411Y250858D01*
X310396Y252184D01*
X311722Y254169D01*
X312188Y256510D01*
X311722Y258851D01*
X310396Y260836D01*
X308411Y262162D01*
X306070Y262628D01*
D02*
G37*
G36*
X397510D02*
X395169Y262162D01*
X393184Y260836D01*
X391858Y258851D01*
X391393Y256510D01*
X391858Y254169D01*
X393184Y252184D01*
X395169Y250858D01*
X397510Y250392D01*
X399851Y250858D01*
X401836Y252184D01*
X403162Y254169D01*
X403628Y256510D01*
X403162Y258851D01*
X401836Y260836D01*
X399851Y262162D01*
X397510Y262628D01*
D02*
G37*
G36*
X1073990Y245480D02*
X1051990D01*
Y240054D01*
X963670D01*
X963670Y240054D01*
X962589Y239839D01*
X961673Y239227D01*
X955878Y233432D01*
X955040Y233598D01*
X953479Y233288D01*
X952156Y232404D01*
X951272Y231081D01*
X950962Y229520D01*
Y222520D01*
X951272Y220959D01*
X952156Y219636D01*
X953479Y218752D01*
X955040Y218442D01*
X956601Y218752D01*
X957924Y219636D01*
X958808Y220959D01*
X959118Y222520D01*
Y228684D01*
X964599Y234165D01*
X965831Y233857D01*
X966033Y233190D01*
X964856Y232404D01*
X963972Y231081D01*
X963662Y229520D01*
Y222520D01*
X963972Y220959D01*
X964856Y219636D01*
X966179Y218752D01*
X967740Y218442D01*
X968644Y218622D01*
X1023143Y164123D01*
X1023143Y164123D01*
X1023692Y163756D01*
X1024059Y163511D01*
X1025140Y163296D01*
X1051990D01*
Y153300D01*
X1073990D01*
Y169800D01*
X1051990D01*
Y168944D01*
X1026310D01*
X978782Y216472D01*
X979170Y217197D01*
Y226020D01*
X980440D01*
Y227290D01*
X985579D01*
Y229520D01*
X985188Y231486D01*
X984074Y233154D01*
X984019Y233190D01*
X984387Y234406D01*
X1051990D01*
Y228980D01*
X1073990D01*
Y245480D01*
D02*
G37*
G36*
X31750Y262628D02*
X29409Y262162D01*
X27424Y260836D01*
X26098Y258851D01*
X25633Y256510D01*
X26098Y254169D01*
X27424Y252184D01*
X29409Y250858D01*
X31750Y250392D01*
X34091Y250858D01*
X36076Y252184D01*
X37402Y254169D01*
X37868Y256510D01*
X37402Y258851D01*
X36076Y260836D01*
X34091Y262162D01*
X31750Y262628D01*
D02*
G37*
%LPD*%
D10*
X1062990Y268230D02*
D03*
Y237230D02*
D03*
Y130550D02*
D03*
Y161550D02*
D03*
D11*
X342900Y6690D02*
X344510Y5080D01*
X228600Y2540D02*
X231140Y0D01*
X439420Y34290D02*
X732790D01*
X431800Y26670D02*
X439420Y34290D01*
X62230Y26670D02*
X431800D01*
X58420Y30480D02*
X62230Y26670D01*
X573460Y102180D02*
X914980D01*
X565150Y110490D02*
X573460Y102180D01*
X565150Y110490D02*
Y171020D01*
X557530Y102870D02*
X565150Y110490D01*
X637540Y87630D02*
X701040D01*
X633730Y91440D02*
X637540Y87630D01*
X543560Y91440D02*
X633730D01*
X703580Y90170D02*
X839470D01*
X701040Y87630D02*
X703580Y90170D01*
X471170Y91440D02*
X543560D01*
X198850D02*
X471170D01*
X190500D02*
X198850D01*
X168540Y113400D02*
X190500Y91440D01*
X168540Y113400D02*
Y134990D01*
X657860Y93980D02*
X659130Y95250D01*
Y96520D01*
X627840Y78280D02*
X633730Y72390D01*
X470363Y78280D02*
X627840D01*
X468863Y79780D02*
X470363Y78280D01*
X368070Y79780D02*
X468863D01*
X631420Y82320D02*
X636325Y77415D01*
X472037Y82320D02*
X631420D01*
X470537Y83820D02*
X472037Y82320D01*
X363857Y83820D02*
X470537D01*
X914980Y102180D02*
X929640Y116840D01*
X636325Y77415D02*
X728195D01*
X728250Y77470D02*
X946783D01*
X728195Y77415D02*
X728250Y77470D01*
X725805Y83185D02*
Y84455D01*
X725170Y85090D02*
X725805Y84455D01*
X659130Y96520D02*
X915033D01*
X933680Y115167D01*
Y142621D01*
X943139Y152080D01*
X961500D01*
X980440Y171020D01*
X590550Y173520D02*
Y185420D01*
X511810Y0D02*
X513080Y-1270D01*
X231140Y0D02*
X511810D01*
X78740Y-7620D02*
X551180D01*
X617220Y5080D02*
X628650Y16510D01*
X344510Y5080D02*
X617220D01*
X647700Y107950D02*
X910697D01*
X635413D02*
X647700D01*
X76200Y-5080D02*
X78740Y-7620D01*
X453390Y29210D02*
X695730D01*
X453390Y27940D02*
Y29210D01*
X452120D02*
X453390Y27940D01*
X695730Y29210D02*
X707160Y17780D01*
X709930D01*
X732790Y34290D02*
X735330Y31750D01*
Y17780D02*
Y31750D01*
X444500Y-16510D02*
X447040Y-19050D01*
X543693D01*
X543803Y-19160D02*
X749190D01*
X760730Y-7620D01*
X543693Y-19050D02*
X543803Y-19160D01*
X244260Y192105D02*
Y201510D01*
X240030Y205740D02*
X244260Y201510D01*
X220980Y205740D02*
X240030D01*
X262520Y120163D02*
X273256Y109426D01*
X280670Y54610D02*
X466090D01*
X480750Y39950D01*
X151130Y60960D02*
X576580D01*
X588010Y49530D01*
X480750Y39950D02*
X766270D01*
X773430Y32790D01*
Y5080D02*
Y32790D01*
Y5080D02*
X786130Y-7620D01*
X923400Y13526D02*
Y57040D01*
X913130Y67310D02*
X923400Y57040D01*
X624840Y67310D02*
X913130D01*
X363167Y83130D02*
X363857Y83820D01*
X352370Y83130D02*
X363167D01*
X351790Y82550D02*
X352370Y83130D01*
X363220Y74930D02*
X368070Y79780D01*
X576580Y69850D02*
X591820Y54610D01*
X534670Y69850D02*
X576580D01*
X633730Y72390D02*
X946150D01*
X588010Y49530D02*
X803910D01*
X811530Y41910D01*
Y17780D02*
Y41910D01*
X781050Y44450D02*
X786130Y39370D01*
X553720Y44450D02*
X781050D01*
X591820Y54610D02*
X844550D01*
X850900Y48260D01*
Y6350D02*
Y48260D01*
X836930Y-7620D02*
X850900Y6350D01*
X289560Y-22860D02*
X290600Y-23900D01*
X858750D01*
X289560Y-22860D02*
Y-21590D01*
X858750Y-23900D02*
X862330Y-20320D01*
Y-7620D01*
X243840Y-22860D02*
X248920Y-27940D01*
X873760D01*
X876300Y-25400D01*
Y6350D01*
X887730Y17780D01*
X786130D02*
Y39370D01*
X637540Y60960D02*
X641350D01*
X852170Y62230D02*
X862330Y52070D01*
X642620Y62230D02*
X852170D01*
X641350Y60960D02*
X642620Y62230D01*
X913130Y3256D02*
X923400Y13526D01*
X913130Y-7620D02*
Y3256D01*
X946783Y77470D02*
X955270Y68983D01*
X946150Y72390D02*
X951230Y67310D01*
X725170Y83820D02*
Y85090D01*
Y83820D02*
X726440Y82550D01*
X955270Y26440D02*
Y68983D01*
Y26440D02*
X963930Y17780D01*
X862330D02*
Y52070D01*
X615950Y185420D02*
X617220Y184150D01*
X604520D02*
X605790D01*
X603250Y185420D02*
X604520Y184150D01*
X589280D02*
X590550Y185420D01*
X726440Y82550D02*
X728290Y84400D01*
X951230Y5080D02*
Y67310D01*
X938530Y-7620D02*
X951230Y5080D01*
X964620Y84400D02*
X977900Y71120D01*
X728290Y84400D02*
X964620D01*
X977900Y3810D02*
Y71120D01*
Y3810D02*
X989330Y-7620D01*
X887730Y-16510D02*
X899160Y-27940D01*
X887730Y-16510D02*
Y-7620D01*
X989330Y-27940D02*
X1002030Y-15240D01*
X899160Y-27940D02*
X989330D01*
X999490Y101600D02*
X1002030Y99060D01*
Y-15240D02*
Y99060D01*
X237490Y173520D02*
Y196850D01*
X223520Y109220D02*
X241300D01*
X250190Y118110D01*
Y118581D01*
X250560Y118951D01*
Y141457D01*
X237490Y154527D02*
X250560Y141457D01*
X237490Y154527D02*
Y171020D01*
X200660Y115570D02*
Y146890D01*
X224790Y171020D01*
X193040Y164670D02*
X199390Y171020D01*
X193040Y102870D02*
X557530D01*
X193040Y104140D02*
Y164670D01*
X199390Y171020D02*
Y173520D01*
X185420Y110490D02*
X187580Y112650D01*
X212090Y166370D02*
Y171020D01*
Y196850D01*
X220980Y205740D01*
X243420Y154311D02*
Y191265D01*
Y154311D02*
X262520Y135211D01*
X243420Y191265D02*
X244260Y192105D01*
X272040Y130810D02*
Y181350D01*
X238760Y214630D02*
X272040Y181350D01*
X214630Y214630D02*
X238760D01*
X237490Y196850D02*
Y199390D01*
X187580Y112650D02*
Y170130D01*
X186690Y171020D02*
X187580Y170130D01*
X496570Y175260D02*
Y219710D01*
X452120Y130810D02*
X496570Y175260D01*
X448570Y130810D02*
X452120D01*
X505490Y175290D02*
Y185420D01*
X472440Y142240D02*
X505490Y175290D01*
X472440Y124460D02*
Y142240D01*
X565150Y171020D02*
Y173520D01*
X543667Y109220D02*
X558800Y124353D01*
X273463Y109220D02*
X543667D01*
X910697Y107950D02*
X922910Y120163D01*
X617220Y126143D02*
X635413Y107950D01*
X871250Y176560D02*
Y185420D01*
X839470Y144780D02*
X871250Y176560D01*
X839470Y125730D02*
Y144780D01*
X871250Y185420D02*
Y208280D01*
X891718Y243840D02*
X897930Y237628D01*
X846080Y243840D02*
X891718D01*
X819410Y270510D02*
X846080Y243840D01*
X231140Y236220D02*
X349250D01*
X224790Y229870D02*
X231140Y236220D01*
X224790Y223520D02*
Y229870D01*
X349250Y236220D02*
X361950Y248920D01*
X130810Y170180D02*
Y220980D01*
X91440Y130810D02*
X130810Y170180D01*
X86620Y130810D02*
X91440D01*
X181420Y134170D02*
Y178453D01*
X178060Y130810D02*
X181420Y134170D01*
X577850Y171020D02*
Y181610D01*
X617220Y126143D02*
Y139700D01*
X609600Y147320D02*
X617220Y139700D01*
X601550Y147320D02*
X609600D01*
X577850Y171020D02*
X601550Y147320D01*
X722630Y236220D02*
X726700Y240290D01*
X599440Y236220D02*
X722630D01*
X590550Y227330D02*
X599440Y236220D01*
X590550Y223520D02*
Y227330D01*
X963670Y237230D02*
X1062990D01*
X955040Y228600D02*
X963670Y237230D01*
X955040Y223520D02*
Y228600D01*
X968798Y246380D02*
X992928Y270510D01*
X938530Y246380D02*
X968798D01*
X929640Y237490D02*
X938530Y246380D01*
X929640Y223520D02*
Y237490D01*
X745490Y289560D02*
X749300D01*
X742950Y292100D02*
X745490Y289560D01*
X665480Y292100D02*
X742950D01*
X654050Y280670D02*
X665480Y292100D01*
X565150Y243840D02*
X568960Y247650D01*
X565150Y223520D02*
Y243840D01*
X601567Y247650D02*
X624427Y270510D01*
X568960Y247650D02*
X601567D01*
X514630Y245110D02*
X518300Y248780D01*
X476510Y245110D02*
X514630D01*
X451110Y270510D02*
X476510Y245110D01*
X237077Y247650D02*
X259937Y270510D01*
X205740Y247650D02*
X237077D01*
X199390Y241300D02*
X205740Y247650D01*
X199390Y223520D02*
Y241300D01*
X156210Y247650D02*
X168720Y235140D01*
X109480Y247650D02*
X156210D01*
X86620Y270510D02*
X109480Y247650D01*
X141000Y185420D02*
Y208280D01*
X149390Y185420D02*
X161290Y173520D01*
X141000Y185420D02*
X149390D01*
X515150Y185420D02*
X527050Y173520D01*
X505490Y185420D02*
X515150D01*
X505490D02*
Y200660D01*
X500380Y223520D02*
X527050D01*
X496570Y219710D02*
X500380Y223520D01*
X133350D02*
X161290D01*
X130810Y220980D02*
X133350Y223520D01*
X1063240Y166120D02*
X1069340Y160020D01*
X822960Y212090D02*
X834390Y223520D01*
X822960Y138430D02*
Y212090D01*
Y138430D02*
X826770Y134620D01*
X834390Y223520D02*
X891540D01*
X1025140Y166120D02*
X1063240D01*
X1037590Y130810D02*
X1037850Y130550D01*
X1062990D01*
X588410Y215500D02*
X593090Y210820D01*
X588367Y215500D02*
X588410D01*
X585280Y218587D02*
X588367Y215500D01*
X585280Y218587D02*
Y218630D01*
X593090Y210820D02*
X603250D01*
X632460Y181610D01*
X635857Y212090D02*
X717137Y130810D01*
X614680Y212090D02*
X635857D01*
X603250Y223520D02*
X614680Y212090D01*
X270097D02*
X351377Y130810D01*
X248920Y212090D02*
X270097D01*
X237490Y223520D02*
X248920Y212090D01*
X854710Y270510D02*
X879850D01*
X946150D02*
X971290D01*
X1037590D02*
X1062730D01*
X854710Y130810D02*
X882390D01*
X946150D02*
X971290D01*
X904240Y173520D02*
Y211846D01*
X897930Y218156D02*
X904240Y211846D01*
X897930Y218156D02*
Y237628D01*
X904240Y223520D02*
Y263900D01*
X910850Y270510D01*
X910630Y164460D02*
X913390Y161700D01*
Y130810D02*
Y161700D01*
X992928Y270510D02*
X1002290D01*
X967740Y223520D02*
X1025140Y166120D01*
X397510Y270510D02*
X420110D01*
X488950D02*
X512820D01*
X397510Y130810D02*
X417570D01*
X488950D02*
X514090D01*
X580390D02*
X601720D01*
X671830D02*
X696970D01*
X790950Y128530D02*
Y130810D01*
Y128530D02*
X791210Y128270D01*
X763270Y130810D02*
X790950D01*
X763270Y270510D02*
X788410D01*
X671830D02*
X695700D01*
X580390D02*
X604260D01*
X539750Y173520D02*
Y213317D01*
X534480Y218587D02*
X539750Y213317D01*
X518300Y248780D02*
X519547D01*
X534480Y218587D02*
Y233847D01*
X519547Y248780D02*
X534480Y233847D01*
X539750Y223520D02*
Y266440D01*
X543820Y270510D01*
X624427D02*
X635260D01*
X717137Y130810D02*
X727970D01*
X726700Y240290D02*
Y270510D01*
X632460Y131070D02*
X632720Y130810D01*
X306070D02*
X331210D01*
X214630D02*
X241040D01*
X123190D02*
X147060D01*
X31750D02*
X55620D01*
X306070Y270510D02*
X329940D01*
X214630D02*
X239770D01*
X123190D02*
X147060D01*
X31750D02*
X55620D01*
X173990Y173520D02*
Y213317D01*
X168720Y218587D02*
X173990Y213317D01*
X168720Y218587D02*
Y235140D01*
X173990Y223520D02*
Y266440D01*
X178060Y270510D01*
X186690Y183723D02*
Y223520D01*
X181420Y178453D02*
X186690Y183723D01*
X351377Y130810D02*
X362210D01*
X360940Y249930D02*
X361950Y248920D01*
X360940Y249930D02*
Y270510D01*
X259937D02*
X270770D01*
X871250Y185420D02*
X883150Y173520D01*
X891540D01*
X955040D02*
Y186690D01*
X1002290Y130810D02*
Y163570D01*
X942340Y223520D02*
X1002290Y163570D01*
X967740Y173520D02*
Y186690D01*
X942340Y171450D02*
Y173520D01*
X910630Y164460D02*
Y191810D01*
X916940Y198120D01*
Y223520D01*
X545090Y130810D02*
Y216160D01*
X552450Y223520D01*
Y173520D02*
Y185420D01*
X603250Y173520D02*
Y185420D01*
X577850Y223520D02*
X580390D01*
X585280Y218630D01*
X615950Y173520D02*
Y185420D01*
X632460Y131070D02*
Y181610D01*
X916940Y173520D02*
Y192407D01*
X920750Y247650D02*
X922210Y246190D01*
X916940Y192407D02*
X922210Y197677D01*
Y246190D01*
X654050Y278130D02*
Y280670D01*
X212090Y217170D02*
Y223520D01*
Y217170D02*
X214630Y214630D01*
X250190Y173520D02*
Y184150D01*
X262520Y120163D02*
Y135211D01*
X929640Y116840D02*
Y173520D01*
X558800Y124353D02*
Y181610D01*
X927457Y181540D02*
X931823D01*
X939843Y173520D01*
X942340D01*
X922910Y120163D02*
Y176993D01*
X927457Y181540D01*
X942340Y171450D02*
X943610Y172720D01*
X942340Y173990D02*
X943610Y172720D01*
X558800Y181610D02*
X562610Y185420D01*
X574040D01*
X577850Y181610D01*
X224790Y173520D02*
Y185420D01*
X141000Y154940D02*
Y176530D01*
Y154940D02*
X152430Y143510D01*
X160020D01*
X168540Y134990D01*
D12*
X419100Y41620D02*
D03*
X381000D02*
D03*
X76200D02*
D03*
X114300D02*
D03*
X152400D02*
D03*
X190500D02*
D03*
X228600D02*
D03*
X266700D02*
D03*
X304800D02*
D03*
X342900D02*
D03*
D13*
X1037590Y130810D02*
D03*
Y116810D02*
D03*
Y144810D02*
D03*
Y284510D02*
D03*
Y256510D02*
D03*
Y270510D02*
D03*
X946150Y130810D02*
D03*
Y116810D02*
D03*
Y144810D02*
D03*
Y284510D02*
D03*
Y256510D02*
D03*
Y270510D02*
D03*
X854710Y130810D02*
D03*
Y116810D02*
D03*
Y144810D02*
D03*
Y284510D02*
D03*
Y256510D02*
D03*
Y270510D02*
D03*
X763270Y130810D02*
D03*
Y116810D02*
D03*
Y144810D02*
D03*
Y284510D02*
D03*
Y256510D02*
D03*
Y270510D02*
D03*
X671830Y130810D02*
D03*
Y116810D02*
D03*
Y144810D02*
D03*
Y284510D02*
D03*
Y256510D02*
D03*
Y270510D02*
D03*
X580390Y130810D02*
D03*
Y116810D02*
D03*
Y144810D02*
D03*
Y284510D02*
D03*
Y256510D02*
D03*
Y270510D02*
D03*
X488950Y130810D02*
D03*
Y116810D02*
D03*
Y144810D02*
D03*
Y284510D02*
D03*
Y256510D02*
D03*
Y270510D02*
D03*
X397510Y130810D02*
D03*
Y116810D02*
D03*
Y144810D02*
D03*
Y284510D02*
D03*
Y256510D02*
D03*
Y270510D02*
D03*
X306070Y130810D02*
D03*
Y116810D02*
D03*
Y144810D02*
D03*
Y284510D02*
D03*
Y256510D02*
D03*
Y270510D02*
D03*
X214630Y130810D02*
D03*
Y116810D02*
D03*
Y144810D02*
D03*
Y284510D02*
D03*
Y256510D02*
D03*
Y270510D02*
D03*
X123190Y130810D02*
D03*
Y116810D02*
D03*
Y144810D02*
D03*
Y284510D02*
D03*
Y256510D02*
D03*
Y270510D02*
D03*
X31750Y130810D02*
D03*
Y116810D02*
D03*
Y144810D02*
D03*
Y284510D02*
D03*
Y256510D02*
D03*
Y270510D02*
D03*
D14*
X709930Y-7620D02*
D03*
X552450Y-8890D02*
D03*
D15*
X709930Y17780D02*
D03*
X735330Y-7620D02*
D03*
Y17780D02*
D03*
X760730Y-7620D02*
D03*
Y17780D02*
D03*
X786130Y-7620D02*
D03*
Y17780D02*
D03*
X811530Y-7620D02*
D03*
Y17780D02*
D03*
X836930Y-7620D02*
D03*
Y17780D02*
D03*
X862330Y-7620D02*
D03*
Y17780D02*
D03*
X887730Y-7620D02*
D03*
Y17780D02*
D03*
X913130Y-7620D02*
D03*
Y17780D02*
D03*
X938530Y-7620D02*
D03*
Y17780D02*
D03*
X963930Y-7620D02*
D03*
Y17780D02*
D03*
X989330Y-7620D02*
D03*
Y17780D02*
D03*
X1014730Y-7620D02*
D03*
Y17780D02*
D03*
X628650Y16510D02*
D03*
Y-8890D02*
D03*
X603250Y16510D02*
D03*
Y-8890D02*
D03*
X577850Y16510D02*
D03*
Y-8890D02*
D03*
X552450Y16510D02*
D03*
D16*
X1096010Y0D02*
D03*
Y327660D02*
D03*
X0D02*
D03*
Y0D02*
D03*
D17*
X572889Y159908D02*
D03*
X623570Y109220D02*
D03*
X566420D02*
D03*
X657860Y93980D02*
D03*
X725805Y83185D02*
D03*
X513080Y-1270D02*
D03*
X342900Y8890D02*
D03*
X647700Y107950D02*
D03*
X543560Y91440D02*
D03*
X58420Y30480D02*
D03*
X76200Y-5080D02*
D03*
X228600Y2540D02*
D03*
X453390Y27940D02*
D03*
X444500Y-16510D02*
D03*
X273050Y109220D02*
D03*
X280670Y54610D02*
D03*
X151130Y59690D02*
D03*
X363220Y74930D02*
D03*
X471170Y91440D02*
D03*
X534670Y69850D02*
D03*
X351790Y82550D02*
D03*
X552450Y45720D02*
D03*
X289560Y-21590D02*
D03*
X243840Y-22860D02*
D03*
X637540Y60960D02*
D03*
X624840Y67310D02*
D03*
X999490Y101600D02*
D03*
X223520Y109220D02*
D03*
X200660Y115570D02*
D03*
X193040Y104140D02*
D03*
X185420Y110490D02*
D03*
X472440Y124460D02*
D03*
X839470Y90170D02*
D03*
Y125730D02*
D03*
D18*
X198850Y91440D02*
D03*
X617220Y184150D02*
D03*
X605790D02*
D03*
X589280D02*
D03*
X237490Y196850D02*
D03*
X749300Y289560D02*
D03*
X955040Y186690D02*
D03*
X967740D02*
D03*
X552450Y185420D02*
D03*
X920750Y247650D02*
D03*
X654050Y278130D02*
D03*
X250190Y186690D02*
D03*
X224790Y185420D02*
D03*
D19*
X980440Y171020D02*
D03*
X967740D02*
D03*
X955040D02*
D03*
X942340D02*
D03*
X929640D02*
D03*
X916940D02*
D03*
X904240D02*
D03*
X891540D02*
D03*
X980440Y226020D02*
D03*
X967740D02*
D03*
X955040D02*
D03*
X942340D02*
D03*
X929640D02*
D03*
X916940D02*
D03*
X904240D02*
D03*
X539750D02*
D03*
X552450D02*
D03*
X565150D02*
D03*
X577850D02*
D03*
X590550D02*
D03*
X603250D02*
D03*
X615950D02*
D03*
X527050Y171020D02*
D03*
X539750D02*
D03*
X552450D02*
D03*
X565150D02*
D03*
X577850D02*
D03*
X590550D02*
D03*
X603250D02*
D03*
X615950D02*
D03*
X250190D02*
D03*
X237490D02*
D03*
X224790D02*
D03*
X212090D02*
D03*
X199390D02*
D03*
X186690D02*
D03*
X173990D02*
D03*
X161290D02*
D03*
X250190Y226020D02*
D03*
X237490D02*
D03*
X224790D02*
D03*
X212090D02*
D03*
X199390D02*
D03*
X186690D02*
D03*
X173990D02*
D03*
D20*
X891540D02*
D03*
X527050D02*
D03*
X161290D02*
D03*
D21*
X871250Y185420D02*
D03*
X843250D02*
D03*
X113000Y185420D02*
D03*
X141000D02*
D03*
X505490Y185420D02*
D03*
X477490D02*
D03*
X871250Y208280D02*
D03*
X843250D02*
D03*
X505490D02*
D03*
X477490D02*
D03*
X141000D02*
D03*
X113000D02*
D03*
D22*
X879850Y270510D02*
D03*
X910850D02*
D03*
X788410D02*
D03*
X819410D02*
D03*
X971290D02*
D03*
X1002290D02*
D03*
X790950Y130810D02*
D03*
X821950D02*
D03*
X882390D02*
D03*
X913390D02*
D03*
X971290D02*
D03*
X1002290D02*
D03*
X696970D02*
D03*
X727970D02*
D03*
X695700Y270510D02*
D03*
X726700D02*
D03*
X601720Y130810D02*
D03*
X632720D02*
D03*
X604260Y270510D02*
D03*
X635260D02*
D03*
X514090Y130810D02*
D03*
X545090D02*
D03*
X512820Y270510D02*
D03*
X543820D02*
D03*
X417570Y130810D02*
D03*
X448570D02*
D03*
X420110Y270510D02*
D03*
X451110D02*
D03*
X239770D02*
D03*
X270770D02*
D03*
X241040Y130810D02*
D03*
X272040D02*
D03*
X331210D02*
D03*
X362210D02*
D03*
X329940Y270510D02*
D03*
X360940D02*
D03*
X55620Y130810D02*
D03*
X86620D02*
D03*
X55620Y270510D02*
D03*
X86620D02*
D03*
X147060D02*
D03*
X178060D02*
D03*
X147060Y130810D02*
D03*
X178060D02*
D03*
M02*
