%FSLAX44Y44*%
%MOMM*%
G71*
G01*
G75*
G04 Layer_Color=8421504*
%ADD10R,1.9000X1.3500*%
%ADD11C,0.2540*%
%ADD12C,1.7000*%
%ADD13C,0.9000*%
%ADD14R,1.5000X1.5000*%
%ADD15C,1.5000*%
%ADD16C,4.0000*%
%ADD17C,0.6000*%
%ADD18C,0.8000*%
%ADD19O,0.5000X1.2000*%
%ADD20R,0.5000X1.2000*%
%ADD21R,0.9500X1.7000*%
%ADD22R,1.3500X1.9000*%
%ADD23C,0.2000*%
%ADD24C,0.2032*%
D10*
X970280Y245370D02*
D03*
Y214370D02*
D03*
X974090Y103130D02*
D03*
Y72130D02*
D03*
X1062990Y242830D02*
D03*
Y211830D02*
D03*
Y103130D02*
D03*
Y72130D02*
D03*
X791210Y242830D02*
D03*
Y211830D02*
D03*
X792480Y103130D02*
D03*
Y72130D02*
D03*
X881380Y242830D02*
D03*
Y211830D02*
D03*
X883920Y103130D02*
D03*
Y72130D02*
D03*
X607060Y242830D02*
D03*
Y211830D02*
D03*
X604520Y103130D02*
D03*
Y72130D02*
D03*
X698500Y242830D02*
D03*
Y211830D02*
D03*
X699770Y103130D02*
D03*
Y72130D02*
D03*
X422910Y242830D02*
D03*
Y211830D02*
D03*
X420370Y103130D02*
D03*
Y72130D02*
D03*
X514350Y242830D02*
D03*
Y211830D02*
D03*
X516890Y103130D02*
D03*
Y72130D02*
D03*
X243840Y103130D02*
D03*
Y72130D02*
D03*
X332740Y242830D02*
D03*
Y211830D02*
D03*
Y103130D02*
D03*
Y72130D02*
D03*
X58420Y242830D02*
D03*
Y211830D02*
D03*
Y103130D02*
D03*
Y72130D02*
D03*
X149860Y242830D02*
D03*
Y211830D02*
D03*
Y103130D02*
D03*
Y72130D02*
D03*
X193040Y242830D02*
D03*
Y211830D02*
D03*
M02*
